<mxfile host="app.diagrams.net" agent="Mozilla/5.0 (Windows NT 10.0; Win64; x64) AppleWebKit/537.36 (KHTML, like Gecko) Chrome/131.0.0.0 Safari/537.36" version="24.9.3">
  <diagram name="Page-1" id="c37626ed-c26b-45fb-9056-f9ebc6bb27b6">
    <mxGraphModel dx="3190" dy="1270" grid="1" gridSize="10" guides="1" tooltips="1" connect="1" arrows="1" fold="1" page="1" pageScale="1" pageWidth="1100" pageHeight="850" background="none" math="0" shadow="0">
      <root>
        <mxCell id="0" />
        <mxCell id="1" parent="0" />
        <mxCell id="ojju-U-CxS5JZMxrK4u1-2" value="" style="rounded=0;whiteSpace=wrap;html=1;" parent="1" vertex="1">
          <mxGeometry x="470" y="1655" width="1450" height="720" as="geometry" />
        </mxCell>
        <mxCell id="ojju-U-CxS5JZMxrK4u1-4" value="&lt;font style=&quot;font-size: 24px;&quot;&gt;RDC&lt;/font&gt;" style="text;strokeColor=none;align=center;fillColor=none;html=1;verticalAlign=middle;whiteSpace=wrap;rounded=0;" parent="1" vertex="1">
          <mxGeometry x="1130" y="1680" width="90" height="30" as="geometry" />
        </mxCell>
        <mxCell id="ojju-U-CxS5JZMxrK4u1-8" value="" style="shape=mxgraph.cisco.switches.atm_switch;sketch=0;html=1;pointerEvents=1;dashed=0;fillColor=#036897;strokeColor=#ffffff;strokeWidth=2;verticalLabelPosition=bottom;verticalAlign=top;align=center;outlineConnect=0;" parent="1" vertex="1">
          <mxGeometry x="910" y="1992" width="54" height="56" as="geometry" />
        </mxCell>
        <mxCell id="ojju-U-CxS5JZMxrK4u1-11" value="" style="shape=mxgraph.cisco.switches.layer_3_switch;sketch=0;html=1;pointerEvents=1;dashed=0;fillColor=#036897;strokeColor=#ffffff;strokeWidth=2;verticalLabelPosition=bottom;verticalAlign=top;align=center;outlineConnect=0;" parent="1" vertex="1">
          <mxGeometry x="1270" y="2190" width="64" height="64" as="geometry" />
        </mxCell>
        <mxCell id="ojju-U-CxS5JZMxrK4u1-12" value="" style="shape=mxgraph.cisco.switches.layer_3_switch;sketch=0;html=1;pointerEvents=1;dashed=0;fillColor=#036897;strokeColor=#ffffff;strokeWidth=2;verticalLabelPosition=bottom;verticalAlign=top;align=center;outlineConnect=0;points=[[0,0.5,0,0,0],[0,1,0,0,0],[0.08,0.05,0,0,0],[0.5,0,0,0,0],[0.5,1,0,0,0],[0.86,1,0,0,0],[1,0,0,0,0],[1,0.5,0,0,0]];" parent="1" vertex="1">
          <mxGeometry x="1117" y="2190" width="64" height="64" as="geometry" />
        </mxCell>
        <mxCell id="ojju-U-CxS5JZMxrK4u1-15" value="" style="sketch=0;verticalLabelPosition=bottom;sketch=0;aspect=fixed;html=1;verticalAlign=top;strokeColor=none;fillColor=#000000;align=center;outlineConnect=0;pointerEvents=1;shape=mxgraph.citrix2.wifi_router;" parent="1" vertex="1">
          <mxGeometry x="1000" y="1850" width="49.9" height="50" as="geometry" />
        </mxCell>
        <mxCell id="ojju-U-CxS5JZMxrK4u1-16" value="" style="sketch=0;verticalLabelPosition=bottom;sketch=0;aspect=fixed;html=1;verticalAlign=top;strokeColor=none;fillColor=#000000;align=center;outlineConnect=0;pointerEvents=1;shape=mxgraph.citrix2.wifi_router;" parent="1" vertex="1">
          <mxGeometry x="1210" y="1860" width="49.9" height="50" as="geometry" />
        </mxCell>
        <mxCell id="ojju-U-CxS5JZMxrK4u1-19" value="" style="shape=mxgraph.cisco.switches.atm_switch;sketch=0;html=1;pointerEvents=1;dashed=0;fillColor=#036897;strokeColor=#ffffff;strokeWidth=2;verticalLabelPosition=bottom;verticalAlign=top;align=center;outlineConnect=0;" parent="1" vertex="1">
          <mxGeometry x="1140" y="1992" width="54" height="56" as="geometry" />
        </mxCell>
        <mxCell id="ojju-U-CxS5JZMxrK4u1-20" value="" style="shape=mxgraph.cisco.switches.atm_switch;sketch=0;html=1;pointerEvents=1;dashed=0;fillColor=#036897;strokeColor=#ffffff;strokeWidth=2;verticalLabelPosition=bottom;verticalAlign=top;align=center;outlineConnect=0;" parent="1" vertex="1">
          <mxGeometry x="1360" y="2000" width="54" height="56" as="geometry" />
        </mxCell>
        <mxCell id="ojju-U-CxS5JZMxrK4u1-24" style="edgeStyle=orthogonalEdgeStyle;rounded=0;orthogonalLoop=1;jettySize=auto;html=1;exitX=0.5;exitY=1;exitDx=0;exitDy=0;exitPerimeter=0;" parent="1" source="ojju-U-CxS5JZMxrK4u1-19" target="ojju-U-CxS5JZMxrK4u1-19" edge="1">
          <mxGeometry relative="1" as="geometry" />
        </mxCell>
        <mxCell id="ojju-U-CxS5JZMxrK4u1-26" value="" style="endArrow=none;html=1;rounded=0;entryX=0.08;entryY=0.05;entryDx=0;entryDy=0;entryPerimeter=0;exitX=1;exitY=0;exitDx=0;exitDy=0;exitPerimeter=0;" parent="1" source="ojju-U-CxS5JZMxrK4u1-12" target="ojju-U-CxS5JZMxrK4u1-11" edge="1">
          <mxGeometry width="50" height="50" relative="1" as="geometry">
            <mxPoint x="1110" y="2130" as="sourcePoint" />
            <mxPoint x="1160" y="2080" as="targetPoint" />
          </mxGeometry>
        </mxCell>
        <mxCell id="ojju-U-CxS5JZMxrK4u1-29" value="" style="endArrow=none;html=1;rounded=0;entryX=0;entryY=1;entryDx=0;entryDy=0;entryPerimeter=0;exitX=0.95;exitY=0.94;exitDx=0;exitDy=0;exitPerimeter=0;" parent="1" source="ojju-U-CxS5JZMxrK4u1-12" target="ojju-U-CxS5JZMxrK4u1-11" edge="1">
          <mxGeometry width="50" height="50" relative="1" as="geometry">
            <mxPoint x="1110" y="2130" as="sourcePoint" />
            <mxPoint x="1160" y="2080" as="targetPoint" />
          </mxGeometry>
        </mxCell>
        <mxCell id="ojju-U-CxS5JZMxrK4u1-37" value="" style="endArrow=none;html=1;rounded=0;exitX=0.92;exitY=0.91;exitDx=0;exitDy=0;exitPerimeter=0;entryX=0.08;entryY=0.05;entryDx=0;entryDy=0;entryPerimeter=0;" parent="1" source="ojju-U-CxS5JZMxrK4u1-8" target="ojju-U-CxS5JZMxrK4u1-12" edge="1">
          <mxGeometry width="50" height="50" relative="1" as="geometry">
            <mxPoint x="1040" y="2045" as="sourcePoint" />
            <mxPoint x="1090" y="1995" as="targetPoint" />
          </mxGeometry>
        </mxCell>
        <mxCell id="ojju-U-CxS5JZMxrK4u1-38" value="" style="endArrow=none;html=1;rounded=0;exitX=0.5;exitY=0;exitDx=0;exitDy=0;exitPerimeter=0;" parent="1" source="ojju-U-CxS5JZMxrK4u1-12" target="ojju-U-CxS5JZMxrK4u1-19" edge="1">
          <mxGeometry width="50" height="50" relative="1" as="geometry">
            <mxPoint x="1080" y="2100" as="sourcePoint" />
            <mxPoint x="1130" y="2050" as="targetPoint" />
          </mxGeometry>
        </mxCell>
        <mxCell id="ojju-U-CxS5JZMxrK4u1-40" value="" style="endArrow=none;html=1;rounded=0;exitX=1;exitY=0.5;exitDx=0;exitDy=0;exitPerimeter=0;entryX=0.08;entryY=0.05;entryDx=0;entryDy=0;entryPerimeter=0;" parent="1" source="ojju-U-CxS5JZMxrK4u1-8" target="ojju-U-CxS5JZMxrK4u1-11" edge="1">
          <mxGeometry width="50" height="50" relative="1" as="geometry">
            <mxPoint x="1080" y="2100" as="sourcePoint" />
            <mxPoint x="1130" y="2050" as="targetPoint" />
          </mxGeometry>
        </mxCell>
        <mxCell id="ojju-U-CxS5JZMxrK4u1-41" value="" style="endArrow=none;html=1;rounded=0;entryX=0.5;entryY=1;entryDx=0;entryDy=0;entryPerimeter=0;exitX=0.5;exitY=0;exitDx=0;exitDy=0;exitPerimeter=0;" parent="1" source="ojju-U-CxS5JZMxrK4u1-11" target="ojju-U-CxS5JZMxrK4u1-19" edge="1">
          <mxGeometry width="50" height="50" relative="1" as="geometry">
            <mxPoint x="1080" y="2100" as="sourcePoint" />
            <mxPoint x="1130" y="2050" as="targetPoint" />
          </mxGeometry>
        </mxCell>
        <mxCell id="ojju-U-CxS5JZMxrK4u1-42" value="" style="endArrow=none;html=1;rounded=0;entryX=0;entryY=1;entryDx=0;entryDy=0;entryPerimeter=0;exitX=1;exitY=0;exitDx=0;exitDy=0;exitPerimeter=0;" parent="1" source="ojju-U-CxS5JZMxrK4u1-12" target="ojju-U-CxS5JZMxrK4u1-20" edge="1">
          <mxGeometry width="50" height="50" relative="1" as="geometry">
            <mxPoint x="1080" y="2100" as="sourcePoint" />
            <mxPoint x="1130" y="2050" as="targetPoint" />
          </mxGeometry>
        </mxCell>
        <mxCell id="ojju-U-CxS5JZMxrK4u1-43" value="" style="endArrow=none;html=1;rounded=0;entryX=0.5;entryY=1;entryDx=0;entryDy=0;entryPerimeter=0;exitX=1;exitY=0;exitDx=0;exitDy=0;exitPerimeter=0;" parent="1" source="ojju-U-CxS5JZMxrK4u1-11" target="ojju-U-CxS5JZMxrK4u1-20" edge="1">
          <mxGeometry width="50" height="50" relative="1" as="geometry">
            <mxPoint x="1080" y="2100" as="sourcePoint" />
            <mxPoint x="1130" y="2050" as="targetPoint" />
          </mxGeometry>
        </mxCell>
        <mxCell id="ojju-U-CxS5JZMxrK4u1-44" value="" style="shape=mxgraph.cisco.computers_and_peripherals.pc;sketch=0;html=1;pointerEvents=1;dashed=0;fillColor=#036897;strokeColor=#ffffff;strokeWidth=2;verticalLabelPosition=bottom;verticalAlign=top;align=center;outlineConnect=0;" parent="1" vertex="1">
          <mxGeometry x="1530" y="1880" width="78" height="70" as="geometry" />
        </mxCell>
        <mxCell id="ojju-U-CxS5JZMxrK4u1-45" value="" style="shape=mxgraph.cisco.computers_and_peripherals.pc;sketch=0;html=1;pointerEvents=1;dashed=0;fillColor=#036897;strokeColor=#ffffff;strokeWidth=2;verticalLabelPosition=bottom;verticalAlign=top;align=center;outlineConnect=0;" parent="1" vertex="1">
          <mxGeometry x="690" y="1870" width="78" height="70" as="geometry" />
        </mxCell>
        <mxCell id="ojju-U-CxS5JZMxrK4u1-46" value="" style="endArrow=none;html=1;rounded=0;entryX=0.5;entryY=0;entryDx=0;entryDy=0;entryPerimeter=0;" parent="1" source="ojju-U-CxS5JZMxrK4u1-15" target="ojju-U-CxS5JZMxrK4u1-8" edge="1">
          <mxGeometry width="50" height="50" relative="1" as="geometry">
            <mxPoint x="790" y="2110" as="sourcePoint" />
            <mxPoint x="840" y="2060" as="targetPoint" />
          </mxGeometry>
        </mxCell>
        <mxCell id="ojju-U-CxS5JZMxrK4u1-47" value="" style="endArrow=none;html=1;rounded=0;entryX=0.5;entryY=0;entryDx=0;entryDy=0;entryPerimeter=0;" parent="1" source="ojju-U-CxS5JZMxrK4u1-16" target="ojju-U-CxS5JZMxrK4u1-20" edge="1">
          <mxGeometry width="50" height="50" relative="1" as="geometry">
            <mxPoint x="790" y="2110" as="sourcePoint" />
            <mxPoint x="840" y="2060" as="targetPoint" />
          </mxGeometry>
        </mxCell>
        <mxCell id="ojju-U-CxS5JZMxrK4u1-49" value="" style="endArrow=none;html=1;rounded=0;entryX=1;entryY=0;entryDx=0;entryDy=0;entryPerimeter=0;" parent="1" source="ojju-U-CxS5JZMxrK4u1-16" target="ojju-U-CxS5JZMxrK4u1-19" edge="1">
          <mxGeometry width="50" height="50" relative="1" as="geometry">
            <mxPoint x="790" y="2110" as="sourcePoint" />
            <mxPoint x="840" y="2060" as="targetPoint" />
          </mxGeometry>
        </mxCell>
        <mxCell id="8Mim_XVAtspVnMCQpjdw-2" value="" style="endArrow=none;html=1;rounded=0;exitX=0.5;exitY=1;exitDx=0;exitDy=0;exitPerimeter=0;entryX=0.11;entryY=0.08;entryDx=0;entryDy=0;entryPerimeter=0;" parent="1" source="ojju-U-CxS5JZMxrK4u1-45" target="ojju-U-CxS5JZMxrK4u1-8" edge="1">
          <mxGeometry width="50" height="50" relative="1" as="geometry">
            <mxPoint x="790" y="1960" as="sourcePoint" />
            <mxPoint x="840" y="1910" as="targetPoint" />
          </mxGeometry>
        </mxCell>
        <mxCell id="8Mim_XVAtspVnMCQpjdw-3" value="" style="endArrow=none;html=1;rounded=0;entryX=0.02;entryY=1;entryDx=0;entryDy=0;entryPerimeter=0;exitX=1;exitY=0;exitDx=0;exitDy=0;exitPerimeter=0;" parent="1" source="ojju-U-CxS5JZMxrK4u1-20" target="ojju-U-CxS5JZMxrK4u1-44" edge="1">
          <mxGeometry width="50" height="50" relative="1" as="geometry">
            <mxPoint x="880" y="2080" as="sourcePoint" />
            <mxPoint x="930" y="2030" as="targetPoint" />
          </mxGeometry>
        </mxCell>
        <mxCell id="8Mim_XVAtspVnMCQpjdw-5" value="" style="image;points=[];aspect=fixed;html=1;align=center;shadow=0;dashed=0;image=img/lib/allied_telesis/security/POE_DVS_Camera.svg;" parent="1" vertex="1">
          <mxGeometry x="1608" y="2105" width="51" height="40.2" as="geometry" />
        </mxCell>
        <mxCell id="8Mim_XVAtspVnMCQpjdw-6" value="" style="image;points=[];aspect=fixed;html=1;align=center;shadow=0;dashed=0;image=img/lib/allied_telesis/security/POE_DVS_Camera.svg;" parent="1" vertex="1">
          <mxGeometry x="718" y="2130" width="51" height="40.2" as="geometry" />
        </mxCell>
        <mxCell id="8Mim_XVAtspVnMCQpjdw-7" value="" style="rounded=0;whiteSpace=wrap;html=1;" parent="1" vertex="1">
          <mxGeometry x="570" y="2550" width="1280" height="560" as="geometry" />
        </mxCell>
        <mxCell id="8Mim_XVAtspVnMCQpjdw-8" value="&lt;font style=&quot;font-size: 24px;&quot;&gt;SS1&lt;/font&gt;" style="text;strokeColor=none;align=center;fillColor=none;html=1;verticalAlign=middle;whiteSpace=wrap;rounded=0;" parent="1" vertex="1">
          <mxGeometry x="1175" y="2570" width="60" height="60" as="geometry" />
        </mxCell>
        <mxCell id="8Mim_XVAtspVnMCQpjdw-11" value="" style="shape=mxgraph.cisco.switches.atm_switch;sketch=0;html=1;pointerEvents=1;dashed=0;fillColor=#036897;strokeColor=#ffffff;strokeWidth=2;verticalLabelPosition=bottom;verticalAlign=top;align=center;outlineConnect=0;" parent="1" vertex="1">
          <mxGeometry x="980" y="2700" width="54" height="56" as="geometry" />
        </mxCell>
        <mxCell id="8Mim_XVAtspVnMCQpjdw-12" value="" style="shape=mxgraph.cisco.switches.atm_switch;sketch=0;html=1;pointerEvents=1;dashed=0;fillColor=#036897;strokeColor=#ffffff;strokeWidth=2;verticalLabelPosition=bottom;verticalAlign=top;align=center;outlineConnect=0;" parent="1" vertex="1">
          <mxGeometry x="1280" y="2700" width="54" height="56" as="geometry" />
        </mxCell>
        <mxCell id="8Mim_XVAtspVnMCQpjdw-14" value="" style="endArrow=none;html=1;rounded=0;exitX=0.11;exitY=0.08;exitDx=0;exitDy=0;exitPerimeter=0;entryX=0;entryY=1;entryDx=0;entryDy=0;entryPerimeter=0;" parent="1" source="8Mim_XVAtspVnMCQpjdw-11" target="ojju-U-CxS5JZMxrK4u1-12" edge="1">
          <mxGeometry width="50" height="50" relative="1" as="geometry">
            <mxPoint x="1130" y="2550" as="sourcePoint" />
            <mxPoint x="1180" y="2500" as="targetPoint" />
          </mxGeometry>
        </mxCell>
        <mxCell id="8Mim_XVAtspVnMCQpjdw-15" value="" style="endArrow=none;html=1;rounded=0;exitX=0.86;exitY=1;exitDx=0;exitDy=0;exitPerimeter=0;entryX=0.11;entryY=0.08;entryDx=0;entryDy=0;entryPerimeter=0;" parent="1" source="ojju-U-CxS5JZMxrK4u1-12" target="8Mim_XVAtspVnMCQpjdw-12" edge="1">
          <mxGeometry width="50" height="50" relative="1" as="geometry">
            <mxPoint x="1130" y="2550" as="sourcePoint" />
            <mxPoint x="1180" y="2500" as="targetPoint" />
          </mxGeometry>
        </mxCell>
        <mxCell id="8Mim_XVAtspVnMCQpjdw-16" value="" style="endArrow=none;html=1;rounded=0;exitX=1;exitY=0;exitDx=0;exitDy=0;exitPerimeter=0;entryX=0;entryY=1;entryDx=0;entryDy=0;entryPerimeter=0;" parent="1" source="8Mim_XVAtspVnMCQpjdw-11" target="ojju-U-CxS5JZMxrK4u1-11" edge="1">
          <mxGeometry width="50" height="50" relative="1" as="geometry">
            <mxPoint x="1130" y="2550" as="sourcePoint" />
            <mxPoint x="1180" y="2500" as="targetPoint" />
          </mxGeometry>
        </mxCell>
        <mxCell id="8Mim_XVAtspVnMCQpjdw-17" value="" style="endArrow=none;html=1;rounded=0;exitX=1;exitY=0;exitDx=0;exitDy=0;exitPerimeter=0;entryX=0.95;entryY=0.94;entryDx=0;entryDy=0;entryPerimeter=0;" parent="1" source="8Mim_XVAtspVnMCQpjdw-12" target="ojju-U-CxS5JZMxrK4u1-11" edge="1">
          <mxGeometry width="50" height="50" relative="1" as="geometry">
            <mxPoint x="1130" y="2550" as="sourcePoint" />
            <mxPoint x="1180" y="2500" as="targetPoint" />
          </mxGeometry>
        </mxCell>
        <mxCell id="8Mim_XVAtspVnMCQpjdw-18" value="" style="shape=mxgraph.cisco.computers_and_peripherals.pc;sketch=0;html=1;pointerEvents=1;dashed=0;fillColor=#036897;strokeColor=#ffffff;strokeWidth=2;verticalLabelPosition=bottom;verticalAlign=top;align=center;outlineConnect=0;" parent="1" vertex="1">
          <mxGeometry x="1440" y="1790" width="78" height="70" as="geometry" />
        </mxCell>
        <mxCell id="8Mim_XVAtspVnMCQpjdw-19" value="" style="endArrow=none;html=1;rounded=0;entryX=0.5;entryY=0;entryDx=0;entryDy=0;entryPerimeter=0;" parent="1" source="8Mim_XVAtspVnMCQpjdw-18" target="ojju-U-CxS5JZMxrK4u1-19" edge="1">
          <mxGeometry width="50" height="50" relative="1" as="geometry">
            <mxPoint x="1130" y="2280" as="sourcePoint" />
            <mxPoint x="1180" y="2230" as="targetPoint" />
          </mxGeometry>
        </mxCell>
        <mxCell id="8Mim_XVAtspVnMCQpjdw-20" value="" style="shape=mxgraph.cisco.computers_and_peripherals.pc;sketch=0;html=1;pointerEvents=1;dashed=0;fillColor=#036897;strokeColor=#ffffff;strokeWidth=2;verticalLabelPosition=bottom;verticalAlign=top;align=center;outlineConnect=0;" parent="1" vertex="1">
          <mxGeometry x="790" y="2970" width="78" height="70" as="geometry" />
        </mxCell>
        <mxCell id="8Mim_XVAtspVnMCQpjdw-21" value="" style="shape=mxgraph.cisco.computers_and_peripherals.pc;sketch=0;html=1;pointerEvents=1;dashed=0;fillColor=#036897;strokeColor=#ffffff;strokeWidth=2;verticalLabelPosition=bottom;verticalAlign=top;align=center;outlineConnect=0;" parent="1" vertex="1">
          <mxGeometry x="1500" y="2970" width="78" height="70" as="geometry" />
        </mxCell>
        <mxCell id="8Mim_XVAtspVnMCQpjdw-22" value="" style="endArrow=none;html=1;rounded=0;" parent="1" source="8Mim_XVAtspVnMCQpjdw-20" target="8Mim_XVAtspVnMCQpjdw-11" edge="1">
          <mxGeometry width="50" height="50" relative="1" as="geometry">
            <mxPoint x="1200" y="2940" as="sourcePoint" />
            <mxPoint x="1250" y="2890" as="targetPoint" />
          </mxGeometry>
        </mxCell>
        <mxCell id="8Mim_XVAtspVnMCQpjdw-23" value="" style="endArrow=none;html=1;rounded=0;entryX=0.5;entryY=0;entryDx=0;entryDy=0;entryPerimeter=0;" parent="1" source="8Mim_XVAtspVnMCQpjdw-12" target="8Mim_XVAtspVnMCQpjdw-21" edge="1">
          <mxGeometry width="50" height="50" relative="1" as="geometry">
            <mxPoint x="1200" y="2940" as="sourcePoint" />
            <mxPoint x="1250" y="2890" as="targetPoint" />
          </mxGeometry>
        </mxCell>
        <mxCell id="8Mim_XVAtspVnMCQpjdw-25" value="" style="shape=mxgraph.cisco.computers_and_peripherals.scanner;sketch=0;html=1;pointerEvents=1;dashed=0;fillColor=#036897;strokeColor=#ffffff;strokeWidth=2;verticalLabelPosition=bottom;verticalAlign=top;align=center;outlineConnect=0;" parent="1" vertex="1">
          <mxGeometry x="1640" y="1985" width="80" height="75" as="geometry" />
        </mxCell>
        <mxCell id="8Mim_XVAtspVnMCQpjdw-26" value="" style="endArrow=none;html=1;rounded=0;exitX=0.92;exitY=0.91;exitDx=0;exitDy=0;exitPerimeter=0;entryX=0.05;entryY=1;entryDx=0;entryDy=0;entryPerimeter=0;" parent="1" source="ojju-U-CxS5JZMxrK4u1-20" target="8Mim_XVAtspVnMCQpjdw-25" edge="1">
          <mxGeometry width="50" height="50" relative="1" as="geometry">
            <mxPoint x="1690" y="2310" as="sourcePoint" />
            <mxPoint x="1740" y="2260" as="targetPoint" />
          </mxGeometry>
        </mxCell>
        <mxCell id="8Mim_XVAtspVnMCQpjdw-27" value="videophone" style="text;strokeColor=none;align=center;fillColor=none;html=1;verticalAlign=middle;whiteSpace=wrap;rounded=0;" parent="1" vertex="1">
          <mxGeometry x="1674" y="1955" width="60" height="30" as="geometry" />
        </mxCell>
        <mxCell id="8Mim_XVAtspVnMCQpjdw-28" value="" style="fontColor=#0066CC;verticalAlign=top;verticalLabelPosition=bottom;labelPosition=center;align=center;html=1;outlineConnect=0;fillColor=#CCCCCC;strokeColor=#6881B3;gradientColor=none;gradientDirection=north;strokeWidth=2;shape=mxgraph.networks.scanner;" parent="1" vertex="1">
          <mxGeometry x="740" y="2210" width="100" height="75" as="geometry" />
        </mxCell>
        <mxCell id="8Mim_XVAtspVnMCQpjdw-29" value="" style="fontColor=#0066CC;verticalAlign=top;verticalLabelPosition=bottom;labelPosition=center;align=center;html=1;outlineConnect=0;fillColor=#CCCCCC;strokeColor=#6881B3;gradientColor=none;gradientDirection=north;strokeWidth=2;shape=mxgraph.networks.scanner;" parent="1" vertex="1">
          <mxGeometry x="1570" y="2230" width="100" height="69" as="geometry" />
        </mxCell>
        <mxCell id="8Mim_XVAtspVnMCQpjdw-31" value="lecteur de badge" style="text;strokeColor=none;align=center;fillColor=none;html=1;verticalAlign=middle;whiteSpace=wrap;rounded=0;" parent="1" vertex="1">
          <mxGeometry x="1565" y="2190" width="110" height="30" as="geometry" />
        </mxCell>
        <mxCell id="8Mim_XVAtspVnMCQpjdw-32" value="" style="endArrow=none;html=1;rounded=0;entryX=0;entryY=0.6;entryDx=0;entryDy=0;entryPerimeter=0;exitX=0.92;exitY=0.91;exitDx=0;exitDy=0;exitPerimeter=0;" parent="1" source="ojju-U-CxS5JZMxrK4u1-20" target="8Mim_XVAtspVnMCQpjdw-29" edge="1">
          <mxGeometry width="50" height="50" relative="1" as="geometry">
            <mxPoint x="1590" y="2410" as="sourcePoint" />
            <mxPoint x="1640" y="2360" as="targetPoint" />
          </mxGeometry>
        </mxCell>
        <mxCell id="8Mim_XVAtspVnMCQpjdw-33" value="" style="endArrow=none;html=1;rounded=0;exitX=0.7;exitY=0;exitDx=0;exitDy=0;exitPerimeter=0;entryX=0;entryY=1;entryDx=0;entryDy=0;entryPerimeter=0;" parent="1" source="8Mim_XVAtspVnMCQpjdw-28" target="ojju-U-CxS5JZMxrK4u1-8" edge="1">
          <mxGeometry width="50" height="50" relative="1" as="geometry">
            <mxPoint x="1300" y="2340" as="sourcePoint" />
            <mxPoint x="1350" y="2290" as="targetPoint" />
          </mxGeometry>
        </mxCell>
        <mxCell id="8Mim_XVAtspVnMCQpjdw-34" value="" style="fontColor=#0066CC;verticalAlign=top;verticalLabelPosition=bottom;labelPosition=center;align=center;html=1;outlineConnect=0;fillColor=#CCCCCC;strokeColor=#6881B3;gradientColor=none;gradientDirection=north;strokeWidth=2;shape=mxgraph.networks.scanner;" parent="1" vertex="1">
          <mxGeometry x="1010.0000000000001" y="2850" width="100" height="69" as="geometry" />
        </mxCell>
        <mxCell id="8Mim_XVAtspVnMCQpjdw-35" value="" style="endArrow=none;html=1;rounded=0;exitX=0;exitY=0.6;exitDx=0;exitDy=0;exitPerimeter=0;entryX=0.92;entryY=0.91;entryDx=0;entryDy=0;entryPerimeter=0;" parent="1" source="8Mim_XVAtspVnMCQpjdw-34" target="8Mim_XVAtspVnMCQpjdw-11" edge="1">
          <mxGeometry width="50" height="50" relative="1" as="geometry">
            <mxPoint x="1300" y="2930" as="sourcePoint" />
            <mxPoint x="1350" y="2880" as="targetPoint" />
          </mxGeometry>
        </mxCell>
        <mxCell id="8Mim_XVAtspVnMCQpjdw-37" value="" style="shape=mxgraph.cisco.computers_and_peripherals.speaker;html=1;pointerEvents=1;dashed=0;fillColor=#036897;strokeColor=#ffffff;strokeWidth=2;verticalLabelPosition=bottom;verticalAlign=top;align=center;outlineConnect=0;" parent="1" vertex="1">
          <mxGeometry x="702.5" y="2620" width="53" height="94" as="geometry" />
        </mxCell>
        <mxCell id="8Mim_XVAtspVnMCQpjdw-38" value="" style="shape=mxgraph.cisco.computers_and_peripherals.speaker;html=1;pointerEvents=1;dashed=0;fillColor=#036897;strokeColor=#ffffff;strokeWidth=2;verticalLabelPosition=bottom;verticalAlign=top;align=center;outlineConnect=0;rotation=-180;" parent="1" vertex="1">
          <mxGeometry x="1650" y="2630" width="53" height="94" as="geometry" />
        </mxCell>
        <mxCell id="8Mim_XVAtspVnMCQpjdw-39" value="" style="shape=mxgraph.cisco.computers_and_peripherals.speaker;html=1;pointerEvents=1;dashed=0;fillColor=#036897;strokeColor=#ffffff;strokeWidth=2;verticalLabelPosition=bottom;verticalAlign=top;align=center;outlineConnect=0;" parent="1" vertex="1">
          <mxGeometry x="600" y="2048" width="53" height="94" as="geometry" />
        </mxCell>
        <mxCell id="8Mim_XVAtspVnMCQpjdw-40" value="" style="shape=mxgraph.cisco.computers_and_peripherals.speaker;html=1;pointerEvents=1;dashed=0;fillColor=#036897;strokeColor=#ffffff;strokeWidth=2;verticalLabelPosition=bottom;verticalAlign=top;align=center;outlineConnect=0;rotation=90;" parent="1" vertex="1">
          <mxGeometry x="1141" y="1756" width="53" height="94" as="geometry" />
        </mxCell>
        <mxCell id="8Mim_XVAtspVnMCQpjdw-41" value="" style="endArrow=none;html=1;rounded=0;exitX=1;exitY=0.5;exitDx=0;exitDy=0;exitPerimeter=0;" parent="1" source="8Mim_XVAtspVnMCQpjdw-12" target="8Mim_XVAtspVnMCQpjdw-38" edge="1">
          <mxGeometry width="50" height="50" relative="1" as="geometry">
            <mxPoint x="1300" y="2700" as="sourcePoint" />
            <mxPoint x="1350" y="2650" as="targetPoint" />
          </mxGeometry>
        </mxCell>
        <mxCell id="8Mim_XVAtspVnMCQpjdw-42" value="" style="endArrow=none;html=1;rounded=0;entryX=0;entryY=0.5;entryDx=0;entryDy=0;entryPerimeter=0;" parent="1" source="8Mim_XVAtspVnMCQpjdw-37" target="8Mim_XVAtspVnMCQpjdw-11" edge="1">
          <mxGeometry width="50" height="50" relative="1" as="geometry">
            <mxPoint x="1300" y="2700" as="sourcePoint" />
            <mxPoint x="1350" y="2650" as="targetPoint" />
          </mxGeometry>
        </mxCell>
        <mxCell id="8Mim_XVAtspVnMCQpjdw-43" value="" style="endArrow=none;html=1;rounded=0;exitX=0.5;exitY=0;exitDx=0;exitDy=0;exitPerimeter=0;" parent="1" source="ojju-U-CxS5JZMxrK4u1-19" target="8Mim_XVAtspVnMCQpjdw-40" edge="1">
          <mxGeometry width="50" height="50" relative="1" as="geometry">
            <mxPoint x="1310" y="2120" as="sourcePoint" />
            <mxPoint x="1360" y="2070" as="targetPoint" />
          </mxGeometry>
        </mxCell>
        <mxCell id="8Mim_XVAtspVnMCQpjdw-44" value="" style="endArrow=none;html=1;rounded=0;entryX=0;entryY=0.5;entryDx=0;entryDy=0;entryPerimeter=0;" parent="1" source="8Mim_XVAtspVnMCQpjdw-39" target="ojju-U-CxS5JZMxrK4u1-8" edge="1">
          <mxGeometry width="50" height="50" relative="1" as="geometry">
            <mxPoint x="1310" y="2120" as="sourcePoint" />
            <mxPoint x="1360" y="2070" as="targetPoint" />
          </mxGeometry>
        </mxCell>
        <mxCell id="8Mim_XVAtspVnMCQpjdw-45" value="Diffuseur Sonore" style="text;strokeColor=none;align=center;fillColor=none;html=1;verticalAlign=middle;whiteSpace=wrap;rounded=0;" parent="1" vertex="1">
          <mxGeometry x="1117" y="1750" width="110" height="30" as="geometry" />
        </mxCell>
        <mxCell id="8Mim_XVAtspVnMCQpjdw-46" value="" style="fontColor=#0066CC;verticalAlign=top;verticalLabelPosition=bottom;labelPosition=center;align=center;html=1;outlineConnect=0;fillColor=#CCCCCC;strokeColor=#6881B3;gradientColor=none;gradientDirection=north;strokeWidth=2;shape=mxgraph.networks.scanner;" parent="1" vertex="1">
          <mxGeometry x="1250" y="2840" width="100" height="69" as="geometry" />
        </mxCell>
        <mxCell id="8Mim_XVAtspVnMCQpjdw-47" value="" style="endArrow=none;html=1;rounded=0;entryX=0;entryY=1;entryDx=0;entryDy=0;entryPerimeter=0;" parent="1" source="8Mim_XVAtspVnMCQpjdw-46" target="8Mim_XVAtspVnMCQpjdw-12" edge="1">
          <mxGeometry width="50" height="50" relative="1" as="geometry">
            <mxPoint x="1190" y="2780" as="sourcePoint" />
            <mxPoint x="1240" y="2730" as="targetPoint" />
          </mxGeometry>
        </mxCell>
        <mxCell id="bPvdb_K-X82c6QVr6BUw-1" value="" style="rounded=0;whiteSpace=wrap;html=1;" parent="1" vertex="1">
          <mxGeometry x="450" y="820" width="1450" height="720" as="geometry" />
        </mxCell>
        <mxCell id="bPvdb_K-X82c6QVr6BUw-2" value="&lt;font style=&quot;font-size: 24px;&quot;&gt;E1&lt;/font&gt;" style="text;strokeColor=none;align=center;fillColor=none;html=1;verticalAlign=middle;whiteSpace=wrap;rounded=0;" parent="1" vertex="1">
          <mxGeometry x="1120" y="880" width="60" height="30" as="geometry" />
        </mxCell>
        <mxCell id="bPvdb_K-X82c6QVr6BUw-4" value="" style="shape=mxgraph.cisco.switches.atm_switch;sketch=0;html=1;pointerEvents=1;dashed=0;fillColor=#036897;strokeColor=#ffffff;strokeWidth=2;verticalLabelPosition=bottom;verticalAlign=top;align=center;outlineConnect=0;" parent="1" vertex="1">
          <mxGeometry x="980" y="1256" width="54" height="56" as="geometry" />
        </mxCell>
        <mxCell id="bPvdb_K-X82c6QVr6BUw-5" value="" style="shape=mxgraph.cisco.switches.atm_switch;sketch=0;html=1;pointerEvents=1;dashed=0;fillColor=#036897;strokeColor=#ffffff;strokeWidth=2;verticalLabelPosition=bottom;verticalAlign=top;align=center;outlineConnect=0;" parent="1" vertex="1">
          <mxGeometry x="1310" y="1247" width="54" height="56" as="geometry" />
        </mxCell>
        <mxCell id="bPvdb_K-X82c6QVr6BUw-7" value="" style="endArrow=none;html=1;rounded=0;exitX=0.5;exitY=0;exitDx=0;exitDy=0;exitPerimeter=0;entryX=0;entryY=1;entryDx=0;entryDy=0;entryPerimeter=0;" parent="1" source="ojju-U-CxS5JZMxrK4u1-12" target="bPvdb_K-X82c6QVr6BUw-4" edge="1">
          <mxGeometry width="50" height="50" relative="1" as="geometry">
            <mxPoint x="1200" y="2080" as="sourcePoint" />
            <mxPoint x="1250" y="2030" as="targetPoint" />
          </mxGeometry>
        </mxCell>
        <mxCell id="bPvdb_K-X82c6QVr6BUw-8" value="" style="endArrow=none;html=1;rounded=0;entryX=0.92;entryY=0.91;entryDx=0;entryDy=0;entryPerimeter=0;exitX=1;exitY=0;exitDx=0;exitDy=0;exitPerimeter=0;" parent="1" source="ojju-U-CxS5JZMxrK4u1-11" target="bPvdb_K-X82c6QVr6BUw-5" edge="1">
          <mxGeometry width="50" height="50" relative="1" as="geometry">
            <mxPoint x="1200" y="1690" as="sourcePoint" />
            <mxPoint x="1250" y="1640" as="targetPoint" />
          </mxGeometry>
        </mxCell>
        <mxCell id="bPvdb_K-X82c6QVr6BUw-10" value="" style="endArrow=none;html=1;rounded=0;entryX=0.92;entryY=0.91;entryDx=0;entryDy=0;entryPerimeter=0;exitX=0.5;exitY=0;exitDx=0;exitDy=0;exitPerimeter=0;" parent="1" source="ojju-U-CxS5JZMxrK4u1-11" target="bPvdb_K-X82c6QVr6BUw-4" edge="1">
          <mxGeometry width="50" height="50" relative="1" as="geometry">
            <mxPoint x="1200" y="1690" as="sourcePoint" />
            <mxPoint x="1250" y="1640" as="targetPoint" />
          </mxGeometry>
        </mxCell>
        <mxCell id="bPvdb_K-X82c6QVr6BUw-11" value="" style="endArrow=none;html=1;rounded=0;entryX=0;entryY=1;entryDx=0;entryDy=0;entryPerimeter=0;exitX=1;exitY=0;exitDx=0;exitDy=0;exitPerimeter=0;" parent="1" source="ojju-U-CxS5JZMxrK4u1-12" target="bPvdb_K-X82c6QVr6BUw-5" edge="1">
          <mxGeometry width="50" height="50" relative="1" as="geometry">
            <mxPoint x="1200" y="1690" as="sourcePoint" />
            <mxPoint x="1250" y="1640" as="targetPoint" />
          </mxGeometry>
        </mxCell>
        <mxCell id="bPvdb_K-X82c6QVr6BUw-23" value="" style="shape=mxgraph.cisco.computers_and_peripherals.pc;sketch=0;html=1;pointerEvents=1;dashed=0;fillColor=#036897;strokeColor=#ffffff;strokeWidth=2;verticalLabelPosition=bottom;verticalAlign=top;align=center;outlineConnect=0;" parent="1" vertex="1">
          <mxGeometry x="1760" y="910" width="78" height="70" as="geometry" />
        </mxCell>
        <mxCell id="bPvdb_K-X82c6QVr6BUw-24" value="" style="shape=mxgraph.cisco.computers_and_peripherals.pc;sketch=0;html=1;pointerEvents=1;dashed=0;fillColor=#036897;strokeColor=#ffffff;strokeWidth=2;verticalLabelPosition=bottom;verticalAlign=top;align=center;outlineConnect=0;" parent="1" vertex="1">
          <mxGeometry x="1760" y="1060" width="78" height="70" as="geometry" />
        </mxCell>
        <mxCell id="bPvdb_K-X82c6QVr6BUw-25" value="" style="shape=mxgraph.cisco.computers_and_peripherals.pc;sketch=0;html=1;pointerEvents=1;dashed=0;fillColor=#036897;strokeColor=#ffffff;strokeWidth=2;verticalLabelPosition=bottom;verticalAlign=top;align=center;outlineConnect=0;" parent="1" vertex="1">
          <mxGeometry x="1760" y="1220" width="78" height="70" as="geometry" />
        </mxCell>
        <mxCell id="bPvdb_K-X82c6QVr6BUw-28" value="" style="shape=mxgraph.cisco.computers_and_peripherals.pc;sketch=0;html=1;pointerEvents=1;dashed=0;fillColor=#036897;strokeColor=#ffffff;strokeWidth=2;verticalLabelPosition=bottom;verticalAlign=top;align=center;outlineConnect=0;" parent="1" vertex="1">
          <mxGeometry x="1760" y="1390" width="78" height="70" as="geometry" />
        </mxCell>
        <mxCell id="bPvdb_K-X82c6QVr6BUw-30" value="" style="shape=mxgraph.cisco.computers_and_peripherals.pc;sketch=0;html=1;pointerEvents=1;dashed=0;fillColor=#036897;strokeColor=#ffffff;strokeWidth=2;verticalLabelPosition=bottom;verticalAlign=top;align=center;outlineConnect=0;" parent="1" vertex="1">
          <mxGeometry x="511" y="910" width="78" height="70" as="geometry" />
        </mxCell>
        <mxCell id="bPvdb_K-X82c6QVr6BUw-31" value="" style="shape=mxgraph.cisco.computers_and_peripherals.pc;sketch=0;html=1;pointerEvents=1;dashed=0;fillColor=#036897;strokeColor=#ffffff;strokeWidth=2;verticalLabelPosition=bottom;verticalAlign=top;align=center;outlineConnect=0;" parent="1" vertex="1">
          <mxGeometry x="511" y="1060" width="78" height="70" as="geometry" />
        </mxCell>
        <mxCell id="bPvdb_K-X82c6QVr6BUw-32" value="" style="shape=mxgraph.cisco.computers_and_peripherals.pc;sketch=0;html=1;pointerEvents=1;dashed=0;fillColor=#036897;strokeColor=#ffffff;strokeWidth=2;verticalLabelPosition=bottom;verticalAlign=top;align=center;outlineConnect=0;" parent="1" vertex="1">
          <mxGeometry x="511" y="1220" width="78" height="70" as="geometry" />
        </mxCell>
        <mxCell id="bPvdb_K-X82c6QVr6BUw-33" value="" style="shape=mxgraph.cisco.computers_and_peripherals.pc;sketch=0;html=1;pointerEvents=1;dashed=0;fillColor=#036897;strokeColor=#ffffff;strokeWidth=2;verticalLabelPosition=bottom;verticalAlign=top;align=center;outlineConnect=0;" parent="1" vertex="1">
          <mxGeometry x="511" y="1390" width="78" height="70" as="geometry" />
        </mxCell>
        <mxCell id="bPvdb_K-X82c6QVr6BUw-34" value="" style="endArrow=none;html=1;rounded=0;entryX=0.86;entryY=0.85;entryDx=0;entryDy=0;entryPerimeter=0;exitX=0.11;exitY=0.08;exitDx=0;exitDy=0;exitPerimeter=0;" parent="1" source="bPvdb_K-X82c6QVr6BUw-4" target="bPvdb_K-X82c6QVr6BUw-30" edge="1">
          <mxGeometry width="50" height="50" relative="1" as="geometry">
            <mxPoint x="1010" y="1330" as="sourcePoint" />
            <mxPoint x="1060" y="1280" as="targetPoint" />
          </mxGeometry>
        </mxCell>
        <mxCell id="bPvdb_K-X82c6QVr6BUw-35" value="" style="endArrow=none;html=1;rounded=0;entryX=0.86;entryY=0.85;entryDx=0;entryDy=0;entryPerimeter=0;exitX=0;exitY=0.5;exitDx=0;exitDy=0;exitPerimeter=0;" parent="1" source="bPvdb_K-X82c6QVr6BUw-4" target="bPvdb_K-X82c6QVr6BUw-31" edge="1">
          <mxGeometry width="50" height="50" relative="1" as="geometry">
            <mxPoint x="1010" y="1330" as="sourcePoint" />
            <mxPoint x="1060" y="1280" as="targetPoint" />
          </mxGeometry>
        </mxCell>
        <mxCell id="bPvdb_K-X82c6QVr6BUw-36" value="" style="endArrow=none;html=1;rounded=0;exitX=0.86;exitY=0.85;exitDx=0;exitDy=0;exitPerimeter=0;entryX=0;entryY=0.5;entryDx=0;entryDy=0;entryPerimeter=0;" parent="1" source="bPvdb_K-X82c6QVr6BUw-32" target="bPvdb_K-X82c6QVr6BUw-4" edge="1">
          <mxGeometry width="50" height="50" relative="1" as="geometry">
            <mxPoint x="1010" y="1330" as="sourcePoint" />
            <mxPoint x="1060" y="1280" as="targetPoint" />
          </mxGeometry>
        </mxCell>
        <mxCell id="bPvdb_K-X82c6QVr6BUw-37" value="" style="endArrow=none;html=1;rounded=0;exitX=0.83;exitY=0.5;exitDx=0;exitDy=0;exitPerimeter=0;entryX=0;entryY=1;entryDx=0;entryDy=0;entryPerimeter=0;" parent="1" source="bPvdb_K-X82c6QVr6BUw-33" target="bPvdb_K-X82c6QVr6BUw-4" edge="1">
          <mxGeometry width="50" height="50" relative="1" as="geometry">
            <mxPoint x="1010" y="1330" as="sourcePoint" />
            <mxPoint x="1070" y="1280" as="targetPoint" />
          </mxGeometry>
        </mxCell>
        <mxCell id="bPvdb_K-X82c6QVr6BUw-38" value="" style="endArrow=none;html=1;rounded=0;entryX=0.02;entryY=1;entryDx=0;entryDy=0;entryPerimeter=0;exitX=1;exitY=0;exitDx=0;exitDy=0;exitPerimeter=0;" parent="1" source="bPvdb_K-X82c6QVr6BUw-5" target="bPvdb_K-X82c6QVr6BUw-23" edge="1">
          <mxGeometry width="50" height="50" relative="1" as="geometry">
            <mxPoint x="1010" y="1330" as="sourcePoint" />
            <mxPoint x="1060" y="1280" as="targetPoint" />
          </mxGeometry>
        </mxCell>
        <mxCell id="bPvdb_K-X82c6QVr6BUw-39" value="" style="endArrow=none;html=1;rounded=0;entryX=0.02;entryY=1;entryDx=0;entryDy=0;entryPerimeter=0;exitX=1;exitY=0.5;exitDx=0;exitDy=0;exitPerimeter=0;" parent="1" source="bPvdb_K-X82c6QVr6BUw-5" target="bPvdb_K-X82c6QVr6BUw-24" edge="1">
          <mxGeometry width="50" height="50" relative="1" as="geometry">
            <mxPoint x="1010" y="1330" as="sourcePoint" />
            <mxPoint x="1060" y="1280" as="targetPoint" />
          </mxGeometry>
        </mxCell>
        <mxCell id="bPvdb_K-X82c6QVr6BUw-40" value="" style="endArrow=none;html=1;rounded=0;exitX=0.92;exitY=0.91;exitDx=0;exitDy=0;exitPerimeter=0;" parent="1" source="bPvdb_K-X82c6QVr6BUw-5" target="bPvdb_K-X82c6QVr6BUw-25" edge="1">
          <mxGeometry width="50" height="50" relative="1" as="geometry">
            <mxPoint x="1010" y="1330" as="sourcePoint" />
            <mxPoint x="1060" y="1280" as="targetPoint" />
          </mxGeometry>
        </mxCell>
        <mxCell id="bPvdb_K-X82c6QVr6BUw-41" value="" style="endArrow=none;html=1;rounded=0;exitX=0.92;exitY=0.91;exitDx=0;exitDy=0;exitPerimeter=0;" parent="1" source="bPvdb_K-X82c6QVr6BUw-5" target="bPvdb_K-X82c6QVr6BUw-28" edge="1">
          <mxGeometry width="50" height="50" relative="1" as="geometry">
            <mxPoint x="1010" y="1330" as="sourcePoint" />
            <mxPoint x="1060" y="1280" as="targetPoint" />
          </mxGeometry>
        </mxCell>
        <mxCell id="bPvdb_K-X82c6QVr6BUw-42" value="" style="shape=mxgraph.cisco.computers_and_peripherals.speaker;html=1;pointerEvents=1;dashed=0;fillColor=#036897;strokeColor=#ffffff;strokeWidth=2;verticalLabelPosition=bottom;verticalAlign=top;align=center;outlineConnect=0;rotation=90;" parent="1" vertex="1">
          <mxGeometry x="1140" y="980" width="53" height="94" as="geometry" />
        </mxCell>
        <mxCell id="bPvdb_K-X82c6QVr6BUw-43" value="" style="shape=mxgraph.cisco.computers_and_peripherals.speaker;html=1;pointerEvents=1;dashed=0;fillColor=#036897;strokeColor=#ffffff;strokeWidth=2;verticalLabelPosition=bottom;verticalAlign=top;align=center;outlineConnect=0;rotation=90;" parent="1" vertex="1">
          <mxGeometry x="790" y="870" width="53" height="94" as="geometry" />
        </mxCell>
        <mxCell id="bPvdb_K-X82c6QVr6BUw-44" value="" style="shape=mxgraph.cisco.computers_and_peripherals.speaker;html=1;pointerEvents=1;dashed=0;fillColor=#036897;strokeColor=#ffffff;strokeWidth=2;verticalLabelPosition=bottom;verticalAlign=top;align=center;outlineConnect=0;rotation=90;" parent="1" vertex="1">
          <mxGeometry x="1430" y="850" width="53" height="94" as="geometry" />
        </mxCell>
        <mxCell id="bPvdb_K-X82c6QVr6BUw-45" value="" style="endArrow=none;html=1;rounded=0;exitX=0.5;exitY=0;exitDx=0;exitDy=0;exitPerimeter=0;" parent="1" source="bPvdb_K-X82c6QVr6BUw-4" target="bPvdb_K-X82c6QVr6BUw-43" edge="1">
          <mxGeometry width="50" height="50" relative="1" as="geometry">
            <mxPoint x="1010" y="1110" as="sourcePoint" />
            <mxPoint x="1060" y="1060" as="targetPoint" />
          </mxGeometry>
        </mxCell>
        <mxCell id="bPvdb_K-X82c6QVr6BUw-46" value="" style="endArrow=none;html=1;rounded=0;entryX=1;entryY=0.5;entryDx=0;entryDy=0;entryPerimeter=0;exitX=0.5;exitY=0;exitDx=0;exitDy=0;exitPerimeter=0;" parent="1" source="bPvdb_K-X82c6QVr6BUw-5" target="bPvdb_K-X82c6QVr6BUw-44" edge="1">
          <mxGeometry width="50" height="50" relative="1" as="geometry">
            <mxPoint x="1010" y="1110" as="sourcePoint" />
            <mxPoint x="1060" y="1060" as="targetPoint" />
          </mxGeometry>
        </mxCell>
        <mxCell id="bPvdb_K-X82c6QVr6BUw-47" value="" style="endArrow=none;html=1;rounded=0;exitX=1;exitY=0;exitDx=0;exitDy=0;exitPerimeter=0;" parent="1" source="bPvdb_K-X82c6QVr6BUw-4" target="bPvdb_K-X82c6QVr6BUw-42" edge="1">
          <mxGeometry width="50" height="50" relative="1" as="geometry">
            <mxPoint x="1010" y="1110" as="sourcePoint" />
            <mxPoint x="1060" y="1060" as="targetPoint" />
          </mxGeometry>
        </mxCell>
        <mxCell id="bPvdb_K-X82c6QVr6BUw-48" value="" style="fontColor=#0066CC;verticalAlign=top;verticalLabelPosition=bottom;labelPosition=center;align=center;html=1;outlineConnect=0;fillColor=#CCCCCC;strokeColor=#6881B3;gradientColor=none;gradientDirection=north;strokeWidth=2;shape=mxgraph.networks.scanner;" parent="1" vertex="1">
          <mxGeometry x="1440" y="1440" width="100" height="69" as="geometry" />
        </mxCell>
        <mxCell id="bPvdb_K-X82c6QVr6BUw-49" value="" style="fontColor=#0066CC;verticalAlign=top;verticalLabelPosition=bottom;labelPosition=center;align=center;html=1;outlineConnect=0;fillColor=#CCCCCC;strokeColor=#6881B3;gradientColor=none;gradientDirection=north;strokeWidth=2;shape=mxgraph.networks.scanner;" parent="1" vertex="1">
          <mxGeometry x="843" y="1440" width="100" height="69" as="geometry" />
        </mxCell>
        <mxCell id="bPvdb_K-X82c6QVr6BUw-50" value="" style="endArrow=none;html=1;rounded=0;entryX=0.5;entryY=1;entryDx=0;entryDy=0;entryPerimeter=0;" parent="1" source="bPvdb_K-X82c6QVr6BUw-49" target="bPvdb_K-X82c6QVr6BUw-4" edge="1">
          <mxGeometry width="50" height="50" relative="1" as="geometry">
            <mxPoint x="1010" y="1550" as="sourcePoint" />
            <mxPoint x="1060" y="1500" as="targetPoint" />
          </mxGeometry>
        </mxCell>
        <mxCell id="bPvdb_K-X82c6QVr6BUw-51" value="" style="endArrow=none;html=1;rounded=0;entryX=0;entryY=0.6;entryDx=0;entryDy=0;entryPerimeter=0;" parent="1" source="bPvdb_K-X82c6QVr6BUw-5" target="bPvdb_K-X82c6QVr6BUw-48" edge="1">
          <mxGeometry width="50" height="50" relative="1" as="geometry">
            <mxPoint x="1350" y="1310" as="sourcePoint" />
            <mxPoint x="1060" y="1500" as="targetPoint" />
          </mxGeometry>
        </mxCell>
        <mxCell id="bPvdb_K-X82c6QVr6BUw-52" value="" style="image;points=[];aspect=fixed;html=1;align=center;shadow=0;dashed=0;image=img/lib/allied_telesis/security/POE_DVS_Camera.svg;" parent="1" vertex="1">
          <mxGeometry x="1624" y="896.9000000000001" width="51" height="40.2" as="geometry" />
        </mxCell>
        <mxCell id="bPvdb_K-X82c6QVr6BUw-53" value="" style="image;points=[];aspect=fixed;html=1;align=center;shadow=0;dashed=0;image=img/lib/allied_telesis/security/POE_DVS_Camera.svg;" parent="1" vertex="1">
          <mxGeometry x="983" y="937.1000000000001" width="51" height="40.2" as="geometry" />
        </mxCell>
        <mxCell id="bPvdb_K-X82c6QVr6BUw-54" value="" style="endArrow=none;html=1;rounded=0;exitX=0.5;exitY=0;exitDx=0;exitDy=0;exitPerimeter=0;" parent="1" source="bPvdb_K-X82c6QVr6BUw-4" target="bPvdb_K-X82c6QVr6BUw-53" edge="1">
          <mxGeometry width="50" height="50" relative="1" as="geometry">
            <mxPoint x="1010" y="1110" as="sourcePoint" />
            <mxPoint x="1060" y="1060" as="targetPoint" />
          </mxGeometry>
        </mxCell>
        <mxCell id="bPvdb_K-X82c6QVr6BUw-55" value="" style="endArrow=none;html=1;rounded=0;entryX=0.11;entryY=0.08;entryDx=0;entryDy=0;entryPerimeter=0;" parent="1" source="bPvdb_K-X82c6QVr6BUw-52" target="bPvdb_K-X82c6QVr6BUw-5" edge="1">
          <mxGeometry width="50" height="50" relative="1" as="geometry">
            <mxPoint x="1010" y="1110" as="sourcePoint" />
            <mxPoint x="1060" y="1060" as="targetPoint" />
          </mxGeometry>
        </mxCell>
        <mxCell id="bPvdb_K-X82c6QVr6BUw-58" value="" style="endArrow=none;html=1;rounded=0;exitX=0.885;exitY=0.412;exitDx=0;exitDy=0;exitPerimeter=0;entryX=0;entryY=1;entryDx=0;entryDy=0;entryPerimeter=0;" parent="1" source="8Mim_XVAtspVnMCQpjdw-6" target="ojju-U-CxS5JZMxrK4u1-8" edge="1">
          <mxGeometry width="50" height="50" relative="1" as="geometry">
            <mxPoint x="1010" y="2000" as="sourcePoint" />
            <mxPoint x="1060" y="1950" as="targetPoint" />
          </mxGeometry>
        </mxCell>
        <mxCell id="bPvdb_K-X82c6QVr6BUw-59" value="" style="endArrow=none;html=1;rounded=0;exitX=1;exitY=0.5;exitDx=0;exitDy=0;exitPerimeter=0;" parent="1" source="ojju-U-CxS5JZMxrK4u1-20" target="8Mim_XVAtspVnMCQpjdw-5" edge="1">
          <mxGeometry width="50" height="50" relative="1" as="geometry">
            <mxPoint x="1010" y="2000" as="sourcePoint" />
            <mxPoint x="1060" y="1950" as="targetPoint" />
          </mxGeometry>
        </mxCell>
        <mxCell id="bPvdb_K-X82c6QVr6BUw-62" value="" style="swimlane;startSize=0;" parent="1" vertex="1">
          <mxGeometry x="460" y="880" width="200" height="280" as="geometry">
            <mxRectangle x="460" y="880" width="50" height="40" as="alternateBounds" />
          </mxGeometry>
        </mxCell>
        <mxCell id="bPvdb_K-X82c6QVr6BUw-63" value="&lt;font style=&quot;font-size: 14px;&quot;&gt;Dev&lt;/font&gt;" style="text;strokeColor=none;align=center;fillColor=none;html=1;verticalAlign=middle;whiteSpace=wrap;rounded=0;" parent="1" vertex="1">
          <mxGeometry x="520" y="850" width="60" height="30" as="geometry" />
        </mxCell>
        <mxCell id="bPvdb_K-X82c6QVr6BUw-65" value="" style="swimlane;startSize=0;" parent="1" vertex="1">
          <mxGeometry x="470" y="1200" width="200" height="270" as="geometry" />
        </mxCell>
        <mxCell id="bPvdb_K-X82c6QVr6BUw-66" value="&lt;font style=&quot;font-size: 14px;&quot;&gt;conception&lt;/font&gt;" style="text;strokeColor=none;align=center;fillColor=none;html=1;verticalAlign=middle;whiteSpace=wrap;rounded=0;" parent="1" vertex="1">
          <mxGeometry x="530" y="1170" width="60" height="30" as="geometry" />
        </mxCell>
        <mxCell id="bPvdb_K-X82c6QVr6BUw-67" value="&lt;font style=&quot;font-size: 14px;&quot;&gt;R&amp;amp;D&lt;/font&gt;" style="text;strokeColor=none;align=center;fillColor=none;html=1;verticalAlign=middle;whiteSpace=wrap;rounded=0;" parent="1" vertex="1">
          <mxGeometry x="1769" y="860" width="60" height="30" as="geometry" />
        </mxCell>
        <mxCell id="bPvdb_K-X82c6QVr6BUw-68" value="" style="swimlane;startSize=0;" parent="1" vertex="1">
          <mxGeometry x="1690" y="896.9" width="200" height="243.1" as="geometry" />
        </mxCell>
        <mxCell id="bPvdb_K-X82c6QVr6BUw-71" value="" style="swimlane;startSize=0;" parent="1" vertex="1">
          <mxGeometry x="1720" y="1190" width="170" height="300" as="geometry" />
        </mxCell>
        <mxCell id="bPvdb_K-X82c6QVr6BUw-73" value="&lt;font style=&quot;font-size: 14px;&quot;&gt;Design&lt;/font&gt;" style="text;strokeColor=none;align=center;fillColor=none;html=1;verticalAlign=middle;whiteSpace=wrap;rounded=0;" parent="1" vertex="1">
          <mxGeometry x="1769" y="1160" width="60" height="30" as="geometry" />
        </mxCell>
        <mxCell id="bPvdb_K-X82c6QVr6BUw-76" value="" style="swimlane;startSize=0;" parent="1" vertex="1">
          <mxGeometry x="1408" y="1760" width="242" height="220" as="geometry" />
        </mxCell>
        <mxCell id="bPvdb_K-X82c6QVr6BUw-77" value="&lt;font style=&quot;font-size: 14px;&quot;&gt;comptabilité&lt;/font&gt;" style="text;strokeColor=none;align=center;fillColor=none;html=1;verticalAlign=middle;whiteSpace=wrap;rounded=0;" parent="1" vertex="1">
          <mxGeometry x="1483" y="1730" width="60" height="30" as="geometry" />
        </mxCell>
        <mxCell id="bPvdb_K-X82c6QVr6BUw-78" value="" style="swimlane;startSize=0;" parent="1" vertex="1">
          <mxGeometry x="629" y="1815" width="200" height="200" as="geometry" />
        </mxCell>
        <mxCell id="bPvdb_K-X82c6QVr6BUw-79" value="&lt;font style=&quot;font-size: 14px;&quot;&gt;DSI&lt;/font&gt;" style="text;strokeColor=none;align=center;fillColor=none;html=1;verticalAlign=middle;whiteSpace=wrap;rounded=0;" parent="1" vertex="1">
          <mxGeometry x="690" y="1780" width="60" height="30" as="geometry" />
        </mxCell>
        <mxCell id="bPvdb_K-X82c6QVr6BUw-81" value="" style="swimlane;startSize=0;" parent="1" vertex="1">
          <mxGeometry x="729" y="2930" width="200" height="150" as="geometry" />
        </mxCell>
        <mxCell id="bPvdb_K-X82c6QVr6BUw-84" value="" style="swimlane;startSize=0;" parent="1" vertex="1">
          <mxGeometry x="1429" y="2930" width="200" height="150" as="geometry" />
        </mxCell>
        <mxCell id="bPvdb_K-X82c6QVr6BUw-85" value="&lt;font style=&quot;font-size: 14px;&quot;&gt;Logistique&lt;/font&gt;" style="text;strokeColor=none;align=center;fillColor=none;html=1;verticalAlign=middle;whiteSpace=wrap;rounded=0;" parent="1" vertex="1">
          <mxGeometry x="799" y="2900" width="60" height="30" as="geometry" />
        </mxCell>
        <mxCell id="bPvdb_K-X82c6QVr6BUw-86" value="&lt;font style=&quot;font-size: 14px;&quot;&gt;RH&lt;/font&gt;" style="text;strokeColor=none;align=center;fillColor=none;html=1;verticalAlign=middle;whiteSpace=wrap;rounded=0;" parent="1" vertex="1">
          <mxGeometry x="1500" y="2900" width="60" height="30" as="geometry" />
        </mxCell>
        <mxCell id="bPvdb_K-X82c6QVr6BUw-87" value="&lt;span style=&quot;font-size: 18px;&quot;&gt;10.40.0.0/16&lt;/span&gt;" style="text;strokeColor=none;align=center;fillColor=none;html=1;verticalAlign=middle;whiteSpace=wrap;rounded=0;" parent="1" vertex="1">
          <mxGeometry x="580" y="850" width="130" height="30" as="geometry" />
        </mxCell>
        <mxCell id="bPvdb_K-X82c6QVr6BUw-88" value="&lt;span style=&quot;font-size: 18px;&quot;&gt;10.50.0.0/16&lt;/span&gt;" style="text;strokeColor=none;align=center;fillColor=none;html=1;verticalAlign=middle;whiteSpace=wrap;rounded=0;" parent="1" vertex="1">
          <mxGeometry x="496.25" y="1470" width="127.5" height="30" as="geometry" />
        </mxCell>
        <mxCell id="bPvdb_K-X82c6QVr6BUw-89" value="&lt;span style=&quot;font-size: 18px;&quot;&gt;10.20.0.0/16&lt;/span&gt;" style="text;strokeColor=none;align=center;fillColor=none;html=1;verticalAlign=middle;whiteSpace=wrap;rounded=0;" parent="1" vertex="1">
          <mxGeometry x="1739" y="830" width="120" height="30" as="geometry" />
        </mxCell>
        <mxCell id="bPvdb_K-X82c6QVr6BUw-90" value="&lt;span style=&quot;font-size: 18px;&quot;&gt;10.110.0.0/16&lt;/span&gt;" style="text;strokeColor=none;align=center;fillColor=none;html=1;verticalAlign=middle;whiteSpace=wrap;rounded=0;" parent="1" vertex="1">
          <mxGeometry x="1734" y="1490" width="130" height="30" as="geometry" />
        </mxCell>
        <mxCell id="bPvdb_K-X82c6QVr6BUw-91" value="&lt;font style=&quot;font-size: 8px;&quot;&gt;GE/0/7&lt;/font&gt;" style="text;strokeColor=none;align=center;fillColor=none;html=1;verticalAlign=middle;whiteSpace=wrap;rounded=0;" parent="1" vertex="1">
          <mxGeometry x="1070" y="2232.5" width="60" height="30" as="geometry" />
        </mxCell>
        <mxCell id="bPvdb_K-X82c6QVr6BUw-92" value="&lt;font style=&quot;font-size: 8px;&quot;&gt;GE/0/1&lt;/font&gt;" style="text;strokeColor=none;align=center;fillColor=none;html=1;verticalAlign=middle;whiteSpace=wrap;rounded=0;" parent="1" vertex="1">
          <mxGeometry x="1070" y="2190" width="60" height="30" as="geometry" />
        </mxCell>
        <mxCell id="bPvdb_K-X82c6QVr6BUw-93" value="&lt;font style=&quot;font-size: 8px;&quot;&gt;GE/0/6&lt;/font&gt;" style="text;strokeColor=none;align=center;fillColor=none;html=1;verticalAlign=middle;whiteSpace=wrap;rounded=0;" parent="1" vertex="1">
          <mxGeometry x="1320" y="2240" width="60" height="30" as="geometry" />
        </mxCell>
        <mxCell id="bPvdb_K-X82c6QVr6BUw-95" value="&lt;font style=&quot;font-size: 8px;&quot;&gt;GE/0/5&lt;/font&gt;" style="text;strokeColor=none;align=center;fillColor=none;html=1;verticalAlign=middle;whiteSpace=wrap;rounded=0;" parent="1" vertex="1">
          <mxGeometry x="1320" y="2180" width="60" height="30" as="geometry" />
        </mxCell>
        <mxCell id="bPvdb_K-X82c6QVr6BUw-96" value="&lt;font style=&quot;font-size: 8px;&quot;&gt;GE/0/4&lt;/font&gt;" style="text;strokeColor=none;align=center;fillColor=none;html=1;verticalAlign=middle;whiteSpace=wrap;rounded=0;" parent="1" vertex="1">
          <mxGeometry x="1290" y="2170.2" width="60" height="30" as="geometry" />
        </mxCell>
        <mxCell id="bPvdb_K-X82c6QVr6BUw-97" value="&lt;font style=&quot;font-size: 8px;&quot;&gt;GE/0/6&lt;/font&gt;" style="text;strokeColor=none;align=center;fillColor=none;html=1;verticalAlign=middle;whiteSpace=wrap;rounded=0;" parent="1" vertex="1">
          <mxGeometry x="1130" y="2254" width="60" height="30" as="geometry" />
        </mxCell>
        <mxCell id="bPvdb_K-X82c6QVr6BUw-98" value="&lt;span style=&quot;font-size: 8px;&quot;&gt;GE/0/5&lt;/span&gt;" style="text;strokeColor=none;align=center;fillColor=none;html=1;verticalAlign=middle;whiteSpace=wrap;rounded=0;" parent="1" vertex="1">
          <mxGeometry x="1167" y="2224" width="60" height="30" as="geometry" />
        </mxCell>
        <mxCell id="bPvdb_K-X82c6QVr6BUw-99" value="&lt;span style=&quot;font-size: 8px;&quot;&gt;GE/0&lt;/span&gt;&lt;span style=&quot;color: rgba(0, 0, 0, 0); font-family: monospace; font-size: 0px; text-align: start; text-wrap-mode: nowrap;&quot;&gt;%3CmxGraphModel%3E%3Croot%3E%3CmxCell%20id%3D%220%22%2F%3E%3CmxCell%20id%3D%221%22%20parent%3D%220%22%2F%3E%3CmxCell%20id%3D%222%22%20value%3D%22%26lt%3Bspan%20style%3D%26quot%3Bfont-size%3A%208px%3B%26quot%3B%26gt%3BGE%2F0%2F1%26lt%3B%2Fspan%26gt%3B%22%20style%3D%22text%3BstrokeColor%3Dnone%3Balign%3Dcenter%3BfillColor%3Dnone%3Bhtml%3D1%3BverticalAlign%3Dmiddle%3BwhiteSpace%3Dwrap%3Brounded%3D0%3B%22%20vertex%3D%221%22%20parent%3D%221%22%3E%3CmxGeometry%20x%3D%221167%22%20y%3D%222224%22%20width%3D%2260%22%20height%3D%2230%22%20as%3D%22geometry%22%2F%3E%3C%2FmxCell%3E%3C%2Froot%3E%3C%2FmxGraphModel%3E&lt;/span&gt;&lt;span style=&quot;color: rgba(0, 0, 0, 0); font-family: monospace; font-size: 0px; text-align: start; text-wrap-mode: nowrap;&quot;&gt;%3CmxGraphModel%3E%3Croot%3E%3CmxCell%20id%3D%220%22%2F%3E%3CmxCell%20id%3D%221%22%20parent%3D%220%22%2F%3E%3CmxCell%20id%3D%222%22%20value%3D%22%26lt%3Bspan%20style%3D%26quot%3Bfont-size%3A%208px%3B%26quot%3B%26gt%3BGE%2F0%2F1%26lt%3B%2Fspan%26gt%3B%22%20style%3D%22text%3BstrokeColor%3Dnone%3Balign%3Dcenter%3BfillColor%3Dnone%3Bhtml%3D1%3BverticalAlign%3Dmiddle%3BwhiteSpace%3Dwrap%3Brounded%3D0%3B%22%20vertex%3D%221%22%20parent%3D%221%22%3E%3CmxGeometry%20x%3D%221167%22%20y%3D%222224%22%20width%3D%2260%22%20height%3D%2230%22%20as%3D%22geometry%22%2F%3E%3C%2FmxCell%3E%3C%2Froot%3E%3C%2FmxGraphModel%3E&lt;/span&gt;&lt;span style=&quot;color: rgba(0, 0, 0, 0); font-family: monospace; font-size: 0px; text-align: start; text-wrap-mode: nowrap;&quot;&gt;%3CmxGraphModel%3E%3Croot%3E%3CmxCell%20id%3D%220%22%2F%3E%3CmxCell%20id%3D%221%22%20parent%3D%220%22%2F%3E%3CmxCell%20id%3D%222%22%20value%3D%22%26lt%3Bspan%20style%3D%26quot%3Bfont-size%3A%208px%3B%26quot%3B%26gt%3BGE%2F0%2F1%26lt%3B%2Fspan%26gt%3B%22%20style%3D%22text%3BstrokeColor%3Dnone%3Balign%3Dcenter%3BfillColor%3Dnone%3Bhtml%3D1%3BverticalAlign%3Dmiddle%3BwhiteSpace%3Dwrap%3Brounded%3D0%3B%22%20vertex%3D%221%22%20parent%3D%221%22%3E%3CmxGeometry%20x%3D%221167%22%20y%3D%222224%22%20width%3D%2260%22%20height%3D%2230%22%20as%3D%22geometry%22%2F%3E%3C%2FmxCell%3E%3C%2Froot%3E%3C%2FmxGraphModel%3E&lt;/span&gt;&lt;span style=&quot;font-size: 8px;&quot;&gt;/2&lt;/span&gt;" style="text;strokeColor=none;align=center;fillColor=none;html=1;verticalAlign=middle;whiteSpace=wrap;rounded=0;" parent="1" vertex="1">
          <mxGeometry x="1100" y="2160" width="60" height="30" as="geometry" />
        </mxCell>
        <mxCell id="bPvdb_K-X82c6QVr6BUw-100" value="&lt;span style=&quot;font-size: 8px;&quot;&gt;GE/0&lt;/span&gt;&lt;span style=&quot;color: rgba(0, 0, 0, 0); font-family: monospace; font-size: 0px; text-align: start; text-wrap-mode: nowrap;&quot;&gt;%3CmxGraphModel%3E%3Croot%3E%3CmxCell%20id%3D%220%22%2F%3E%3CmxCell%20id%3D%221%22%20parent%3D%220%22%2F%3E%3CmxCell%20id%3D%222%22%20value%3D%22%26lt%3Bspan%20style%3D%26quot%3Bfont-size%3A%208px%3B%26quot%3B%26gt%3BGE%2F0%2F1%26lt%3B%2Fspan%26gt%3B%22%20style%3D%22text%3BstrokeColor%3Dnone%3Balign%3Dcenter%3BfillColor%3Dnone%3Bhtml%3D1%3BverticalAlign%3Dmiddle%3BwhiteSpace%3Dwrap%3Brounded%3D0%3B%22%20vertex%3D%221%22%20parent%3D%221%22%3E%3CmxGeometry%20x%3D%221167%22%20y%3D%222224%22%20width%3D%2260%22%20height%3D%2230%22%20as%3D%22geometry%22%2F%3E%3C%2FmxCell%3E%3C%2Froot%3E%3C%2FmxGraphModel%3E&lt;/span&gt;&lt;span style=&quot;color: rgba(0, 0, 0, 0); font-family: monospace; font-size: 0px; text-align: start; text-wrap-mode: nowrap;&quot;&gt;%3CmxGraphModel%3E%3Croot%3E%3CmxCell%20id%3D%220%22%2F%3E%3CmxCell%20id%3D%221%22%20parent%3D%220%22%2F%3E%3CmxCell%20id%3D%222%22%20value%3D%22%26lt%3Bspan%20style%3D%26quot%3Bfont-size%3A%208px%3B%26quot%3B%26gt%3BGE%2F0%2F1%26lt%3B%2Fspan%26gt%3B%22%20style%3D%22text%3BstrokeColor%3Dnone%3Balign%3Dcenter%3BfillColor%3Dnone%3Bhtml%3D1%3BverticalAlign%3Dmiddle%3BwhiteSpace%3Dwrap%3Brounded%3D0%3B%22%20vertex%3D%221%22%20parent%3D%221%22%3E%3CmxGeometry%20x%3D%221167%22%20y%3D%222224%22%20width%3D%2260%22%20height%3D%2230%22%20as%3D%22geometry%22%2F%3E%3C%2FmxCell%3E%3C%2Froot%3E%3C%2FmxGraphModel%3E&lt;/span&gt;&lt;span style=&quot;color: rgba(0, 0, 0, 0); font-family: monospace; font-size: 0px; text-align: start; text-wrap-mode: nowrap;&quot;&gt;%3CmxGraphModel%3E%3Croot%3E%3CmxCell%20id%3D%220%22%2F%3E%3CmxCell%20id%3D%221%22%20parent%3D%220%22%2F%3E%3CmxCell%20id%3D%222%22%20value%3D%22%26lt%3Bspan%20style%3D%26quot%3Bfont-size%3A%208px%3B%26quot%3B%26gt%3BGE%2F0%2F1%26lt%3B%2Fspan%26gt%3B%22%20style%3D%22text%3BstrokeColor%3Dnone%3Balign%3Dcenter%3BfillColor%3Dnone%3Bhtml%3D1%3BverticalAlign%3Dmiddle%3BwhiteSpace%3Dwrap%3Brounded%3D0%3B%22%20vertex%3D%221%22%20parent%3D%221%22%3E%3CmxGeometry%20x%3D%221167%22%20y%3D%222224%22%20width%3D%2260%22%20height%3D%2230%22%20as%3D%22geometry%22%2F%3E%3C%2FmxCell%3E%3C%2Froot%3E%3C%2FmxGraphModel%3E&lt;/span&gt;&lt;span style=&quot;font-size: 8px;&quot;&gt;/3&lt;/span&gt;" style="text;strokeColor=none;align=center;fillColor=none;html=1;verticalAlign=middle;whiteSpace=wrap;rounded=0;" parent="1" vertex="1">
          <mxGeometry x="1137.5" y="2160" width="60" height="30" as="geometry" />
        </mxCell>
        <mxCell id="bPvdb_K-X82c6QVr6BUw-102" value="" style="whiteSpace=wrap;html=1;aspect=fixed;" parent="1" vertex="1">
          <mxGeometry x="2040" y="1880" width="390" height="390" as="geometry" />
        </mxCell>
        <mxCell id="bPvdb_K-X82c6QVr6BUw-103" value="" style="shape=mxgraph.cisco.switches.atm_switch;sketch=0;html=1;pointerEvents=1;dashed=0;fillColor=#036897;strokeColor=#ffffff;strokeWidth=2;verticalLabelPosition=bottom;verticalAlign=top;align=center;outlineConnect=0;" parent="1" vertex="1">
          <mxGeometry x="2090" y="2056" width="54" height="56" as="geometry" />
        </mxCell>
        <mxCell id="bPvdb_K-X82c6QVr6BUw-104" value="" style="shape=mxgraph.cisco.switches.atm_switch;sketch=0;html=1;pointerEvents=1;dashed=0;fillColor=#036897;strokeColor=#ffffff;strokeWidth=2;verticalLabelPosition=bottom;verticalAlign=top;align=center;outlineConnect=0;" parent="1" vertex="1">
          <mxGeometry x="2290" y="2056" width="54" height="56" as="geometry" />
        </mxCell>
        <mxCell id="bPvdb_K-X82c6QVr6BUw-106" value="" style="endArrow=none;html=1;rounded=0;entryX=0.92;entryY=0.91;entryDx=0;entryDy=0;entryPerimeter=0;exitX=0;exitY=1;exitDx=0;exitDy=0;exitPerimeter=0;" parent="1" source="bPvdb_K-X82c6QVr6BUw-104" target="bPvdb_K-X82c6QVr6BUw-103" edge="1">
          <mxGeometry width="50" height="50" relative="1" as="geometry">
            <mxPoint x="1930" y="2090" as="sourcePoint" />
            <mxPoint x="1980" y="2040" as="targetPoint" />
          </mxGeometry>
        </mxCell>
        <mxCell id="bPvdb_K-X82c6QVr6BUw-107" value="" style="endArrow=none;html=1;rounded=0;entryX=1;entryY=0;entryDx=0;entryDy=0;entryPerimeter=0;exitX=0.11;exitY=0.08;exitDx=0;exitDy=0;exitPerimeter=0;" parent="1" source="bPvdb_K-X82c6QVr6BUw-104" target="bPvdb_K-X82c6QVr6BUw-103" edge="1">
          <mxGeometry width="50" height="50" relative="1" as="geometry">
            <mxPoint x="1930" y="2090" as="sourcePoint" />
            <mxPoint x="1980" y="2040" as="targetPoint" />
          </mxGeometry>
        </mxCell>
        <mxCell id="bPvdb_K-X82c6QVr6BUw-108" value="connexion entre les 2 routeur coeur" style="text;strokeColor=none;align=center;fillColor=none;html=1;verticalAlign=middle;whiteSpace=wrap;rounded=0;" parent="1" vertex="1">
          <mxGeometry x="2144" y="1890" width="170" height="60" as="geometry" />
        </mxCell>
        <mxCell id="bPvdb_K-X82c6QVr6BUw-109" value="&lt;span style=&quot;font-size: 8px;&quot;&gt;FG/0/1&lt;/span&gt;" style="text;strokeColor=none;align=center;fillColor=none;html=1;verticalAlign=middle;whiteSpace=wrap;rounded=0;" parent="1" vertex="1">
          <mxGeometry x="2110" y="2105" width="60" height="30" as="geometry" />
        </mxCell>
        <mxCell id="bPvdb_K-X82c6QVr6BUw-110" value="&lt;span style=&quot;font-size: 8px;&quot;&gt;FG/0/2&lt;/span&gt;" style="text;strokeColor=none;align=center;fillColor=none;html=1;verticalAlign=middle;whiteSpace=wrap;rounded=0;" parent="1" vertex="1">
          <mxGeometry x="2120" y="2030" width="60" height="30" as="geometry" />
        </mxCell>
        <mxCell id="bPvdb_K-X82c6QVr6BUw-111" value="&lt;span style=&quot;font-size: 8px;&quot;&gt;FG/0/1&lt;/span&gt;" style="text;strokeColor=none;align=center;fillColor=none;html=1;verticalAlign=middle;whiteSpace=wrap;rounded=0;" parent="1" vertex="1">
          <mxGeometry x="2260" y="2105" width="60" height="30" as="geometry" />
        </mxCell>
        <mxCell id="bPvdb_K-X82c6QVr6BUw-112" value="&lt;span style=&quot;font-size: 8px;&quot;&gt;FG/0/2&lt;/span&gt;" style="text;strokeColor=none;align=center;fillColor=none;html=1;verticalAlign=middle;whiteSpace=wrap;rounded=0;" parent="1" vertex="1">
          <mxGeometry x="2270" y="2030" width="60" height="30" as="geometry" />
        </mxCell>
        <mxCell id="bPvdb_K-X82c6QVr6BUw-113" value="&lt;font style=&quot;font-size: 8px;&quot;&gt;GE/0/2&lt;/font&gt;" style="text;strokeColor=none;align=center;fillColor=none;html=1;verticalAlign=middle;whiteSpace=wrap;rounded=0;" parent="1" vertex="1">
          <mxGeometry x="1240" y="2160" width="60" height="30" as="geometry" />
        </mxCell>
        <mxCell id="bPvdb_K-X82c6QVr6BUw-114" value="&lt;font style=&quot;font-size: 8px;&quot;&gt;GE/0/1&lt;/font&gt;" style="text;strokeColor=none;align=center;fillColor=none;html=1;verticalAlign=middle;whiteSpace=wrap;rounded=0;" parent="1" vertex="1">
          <mxGeometry x="1227" y="2190" width="60" height="30" as="geometry" />
        </mxCell>
        <mxCell id="bPvdb_K-X82c6QVr6BUw-115" value="&lt;font style=&quot;font-size: 8px;&quot;&gt;GE/0/4&lt;/font&gt;" style="text;strokeColor=none;align=center;fillColor=none;html=1;verticalAlign=middle;whiteSpace=wrap;rounded=0;" parent="1" vertex="1">
          <mxGeometry x="1167" y="2190" width="60" height="30" as="geometry" />
        </mxCell>
        <mxCell id="bPvdb_K-X82c6QVr6BUw-116" value="&lt;font style=&quot;font-size: 8px;&quot;&gt;GE/0/7&lt;/font&gt;" style="text;strokeColor=none;align=center;fillColor=none;html=1;verticalAlign=middle;whiteSpace=wrap;rounded=0;" parent="1" vertex="1">
          <mxGeometry x="1260" y="2249.5" width="60" height="30" as="geometry" />
        </mxCell>
        <mxCell id="bPvdb_K-X82c6QVr6BUw-117" value="&lt;font style=&quot;font-size: 8px;&quot;&gt;GE/0/3&lt;/font&gt;" style="text;strokeColor=none;align=center;fillColor=none;html=1;verticalAlign=middle;whiteSpace=wrap;rounded=0;" parent="1" vertex="1">
          <mxGeometry x="1280" y="2150.2" width="60" height="20" as="geometry" />
        </mxCell>
        <mxCell id="bPvdb_K-X82c6QVr6BUw-119" value="&lt;font style=&quot;font-size: 8px;&quot;&gt;TG/1/1/1&lt;/font&gt;" style="text;strokeColor=none;align=center;fillColor=none;html=1;verticalAlign=middle;whiteSpace=wrap;rounded=0;" parent="1" vertex="1">
          <mxGeometry x="920" y="2048" width="60" height="30" as="geometry" />
        </mxCell>
        <mxCell id="bPvdb_K-X82c6QVr6BUw-120" value="&lt;font style=&quot;font-size: 8px;&quot;&gt;TG/1/1/2&lt;/font&gt;" style="text;strokeColor=none;align=center;fillColor=none;html=1;verticalAlign=middle;whiteSpace=wrap;rounded=0;" parent="1" vertex="1">
          <mxGeometry x="960" y="2000" width="60" height="30" as="geometry" />
        </mxCell>
        <mxCell id="bPvdb_K-X82c6QVr6BUw-123" value="&lt;font style=&quot;font-size: 8px;&quot;&gt;TG/1/2&lt;/font&gt;" style="text;strokeColor=none;align=center;fillColor=none;html=1;verticalAlign=middle;whiteSpace=wrap;rounded=0;" parent="1" vertex="1">
          <mxGeometry x="1170" y="2040" width="33" height="20" as="geometry" />
        </mxCell>
        <mxCell id="bPvdb_K-X82c6QVr6BUw-124" value="&lt;font style=&quot;font-size: 8px;&quot;&gt;TG/1/1&lt;/font&gt;" style="text;strokeColor=none;align=center;fillColor=none;html=1;verticalAlign=middle;whiteSpace=wrap;rounded=0;" parent="1" vertex="1">
          <mxGeometry x="1110" y="2040" width="60" height="30" as="geometry" />
        </mxCell>
        <mxCell id="bPvdb_K-X82c6QVr6BUw-125" value="&lt;font style=&quot;font-size: 8px;&quot;&gt;TG/1/1&lt;/font&gt;" style="text;strokeColor=none;align=center;fillColor=none;html=1;verticalAlign=middle;whiteSpace=wrap;rounded=0;" parent="1" vertex="1">
          <mxGeometry x="1330" y="2035" width="34" height="30" as="geometry" />
        </mxCell>
        <mxCell id="bPvdb_K-X82c6QVr6BUw-126" value="&lt;font style=&quot;font-size: 8px;&quot;&gt;TG/1/2&lt;/font&gt;&lt;span style=&quot;color: rgba(0, 0, 0, 0); font-family: monospace; font-size: 0px; text-align: start; text-wrap-mode: nowrap;&quot;&gt;%3CmxGraphModel%3E%3Croot%3E%3CmxCell%20id%3D%220%22%2F%3E%3CmxCell%20id%3D%221%22%20parent%3D%220%22%2F%3E%3CmxCell%20id%3D%222%22%20value%3D%22%26lt%3Bfont%20style%3D%26quot%3Bfont-size%3A%208px%3B%26quot%3B%26gt%3BTG%2F1%2F1%2F1%26lt%3B%2Ffont%26gt%3B%22%20style%3D%22text%3BstrokeColor%3Dnone%3Balign%3Dcenter%3BfillColor%3Dnone%3Bhtml%3D1%3BverticalAlign%3Dmiddle%3BwhiteSpace%3Dwrap%3Brounded%3D0%3B%22%20vertex%3D%221%22%20parent%3D%221%22%3E%3CmxGeometry%20x%3D%22920%22%20y%3D%222048%22%20width%3D%2260%22%20height%3D%2230%22%20as%3D%22geometry%22%2F%3E%3C%2FmxCell%3E%3C%2Froot%3E%3C%2FmxGraphModel%3E&lt;/span&gt;&lt;span style=&quot;color: rgba(0, 0, 0, 0); font-family: monospace; font-size: 0px; text-align: start; text-wrap-mode: nowrap;&quot;&gt;%3CmxGraphModel%3E%3Croot%3E%3CmxCell%20id%3D%220%22%2F%3E%3CmxCell%20id%3D%221%22%20parent%3D%220%22%2F%3E%3CmxCell%20id%3D%222%22%20value%3D%22%26lt%3Bfont%20style%3D%26quot%3Bfont-size%3A%208px%3B%26quot%3B%26gt%3BTG%2F1%2F1%2F1%26lt%3B%2Ffont%26gt%3B%22%20style%3D%22text%3BstrokeColor%3Dnone%3Balign%3Dcenter%3BfillColor%3Dnone%3Bhtml%3D1%3BverticalAlign%3Dmiddle%3BwhiteSpace%3Dwrap%3Brounded%3D0%3B%22%20vertex%3D%221%22%20parent%3D%221%22%3E%3CmxGeometry%20x%3D%22920%22%20y%3D%222048%22%20width%3D%2260%22%20height%3D%2230%22%20as%3D%22geometry%22%2F%3E%3C%2FmxCell%3E%3C%2Froot%3E%3C%2FmxGraphModel%3E&lt;/span&gt;" style="text;strokeColor=none;align=center;fillColor=none;html=1;verticalAlign=middle;whiteSpace=wrap;rounded=0;" parent="1" vertex="1">
          <mxGeometry x="1380" y="2060" width="60" height="30" as="geometry" />
        </mxCell>
        <mxCell id="bPvdb_K-X82c6QVr6BUw-127" value="&lt;font style=&quot;font-size: 8px;&quot;&gt;TG/1/1/2&lt;/font&gt;&lt;span style=&quot;color: rgba(0, 0, 0, 0); font-family: monospace; font-size: 0px; text-align: start; text-wrap-mode: nowrap;&quot;&gt;%3CmxGraphModel%3E%3Croot%3E%3CmxCell%20id%3D%220%22%2F%3E%3CmxCell%20id%3D%221%22%20parent%3D%220%22%2F%3E%3CmxCell%20id%3D%222%22%20value%3D%22%26lt%3Bfont%20style%3D%26quot%3Bfont-size%3A%208px%3B%26quot%3B%26gt%3BTG%2F1%2F1%2F1%26lt%3B%2Ffont%26gt%3B%22%20style%3D%22text%3BstrokeColor%3Dnone%3Balign%3Dcenter%3BfillColor%3Dnone%3Bhtml%3D1%3BverticalAlign%3Dmiddle%3BwhiteSpace%3Dwrap%3Brounded%3D0%3B%22%20vertex%3D%221%22%20parent%3D%221%22%3E%3CmxGeometry%20x%3D%22920%22%20y%3D%222048%22%20width%3D%2260%22%20height%3D%2230%22%20as%3D%22geometry%22%2F%3E%3C%2FmxCell%3E%3C%2Froot%3E%3C%2FmxGraphModel%3E&lt;/span&gt;&lt;span style=&quot;color: rgba(0, 0, 0, 0); font-family: monospace; font-size: 0px; text-align: start; text-wrap-mode: nowrap;&quot;&gt;%3CmxGraphModel%3E%3Croot%3E%3CmxCell%20id%3D%220%22%2F%3E%3CmxCell%20id%3D%221%22%20parent%3D%220%22%2F%3E%3CmxCell%20id%3D%222%22%20value%3D%22%26lt%3Bfont%20style%3D%26quot%3Bfont-size%3A%208px%3B%26quot%3B%26gt%3BTG%2F1%2F1%2F1%26lt%3B%2Ffont%26gt%3B%22%20style%3D%22text%3BstrokeColor%3Dnone%3Balign%3Dcenter%3BfillColor%3Dnone%3Bhtml%3D1%3BverticalAlign%3Dmiddle%3BwhiteSpace%3Dwrap%3Brounded%3D0%3B%22%20vertex%3D%221%22%20parent%3D%221%22%3E%3CmxGeometry%20x%3D%22920%22%20y%3D%222048%22%20width%3D%2260%22%20height%3D%2230%22%20as%3D%22geometry%22%2F%3E%3C%2FmxCell%3E%3C%2Froot%3E%3C%2FmxGraphModel%3E&lt;/span&gt;" style="text;strokeColor=none;align=center;fillColor=none;html=1;verticalAlign=middle;whiteSpace=wrap;rounded=0;" parent="1" vertex="1">
          <mxGeometry x="1020" y="1290" width="60" height="30" as="geometry" />
        </mxCell>
        <mxCell id="bPvdb_K-X82c6QVr6BUw-128" value="&lt;font style=&quot;font-size: 8px;&quot;&gt;TG/1/1&lt;/font&gt;&lt;span style=&quot;color: rgba(0, 0, 0, 0); font-family: monospace; font-size: 0px; text-align: start; text-wrap-mode: nowrap;&quot;&gt;%3CmxGraphModel%3E%3Croot%3E%3CmxCell%20id%3D%220%22%2F%3E%3CmxCell%20id%3D%221%22%20parent%3D%220%22%2F%3E%3CmxCell%20id%3D%222%22%20value%3D%22%26lt%3Bfont%20style%3D%26quot%3Bfont-size%3A%208px%3B%26quot%3B%26gt%3BTG%2F1%2F1%2F1%26lt%3B%2Ffont%26gt%3B%22%20style%3D%22text%3BstrokeColor%3Dnone%3Balign%3Dcenter%3BfillColor%3Dnone%3Bhtml%3D1%3BverticalAlign%3Dmiddle%3BwhiteSpace%3Dwrap%3Brounded%3D0%3B%22%20vertex%3D%221%22%20parent%3D%221%22%3E%3CmxGeometry%20x%3D%22920%22%20y%3D%222048%22%20width%3D%2260%22%20height%3D%2230%22%20as%3D%22geometry%22%2F%3E%3C%2FmxCell%3E%3C%2Froot%3E%3C%2FmxGraphModel%3E&lt;/span&gt;&lt;span style=&quot;color: rgba(0, 0, 0, 0); font-family: monospace; font-size: 0px; text-align: start; text-wrap-mode: nowrap;&quot;&gt;%3CmxGraphModel%3E%3Croot%3E%3CmxCell%20id%3D%220%22%2F%3E%3CmxCell%20id%3D%221%22%20parent%3D%220%22%2F%3E%3CmxCell%20id%3D%222%22%20value%3D%22%26lt%3Bfont%20style%3D%26quot%3Bfont-size%3A%208px%3B%26quot%3B%26gt%3BTG%2F1%2F1%2F1%26lt%3B%2Ffont%26gt%3B%22%20style%3D%22text%3BstrokeColor%3Dnone%3Balign%3Dcenter%3BfillColor%3Dnone%3Bhtml%3D1%3BverticalAlign%3Dmiddle%3BwhiteSpace%3Dwrap%3Brounded%3D0%3B%22%20vertex%3D%221%22%20parent%3D%221%22%3E%3CmxGeometry%20x%3D%22920%22%20y%3D%222048%22%20width%3D%2260%22%20height%3D%2230%22%20as%3D%22geometry%22%2F%3E%3C%2FmxCell%3E%3C%2Froot%3E%3C%2FmxGraphModel%3E&lt;/span&gt;" style="text;strokeColor=none;align=center;fillColor=none;html=1;verticalAlign=middle;whiteSpace=wrap;rounded=0;" parent="1" vertex="1">
          <mxGeometry x="989.9000000000001" y="1312" width="60" height="30" as="geometry" />
        </mxCell>
        <mxCell id="bPvdb_K-X82c6QVr6BUw-129" value="&lt;font style=&quot;font-size: 8px;&quot;&gt;TG/1/1&lt;/font&gt;&lt;span style=&quot;color: rgba(0, 0, 0, 0); font-family: monospace; font-size: 0px; text-align: start; text-wrap-mode: nowrap;&quot;&gt;%3CmxGraphModel%3E%3Croot%3E%3CmxCell%20id%3D%220%22%2F%3E%3CmxCell%20id%3D%221%22%20parent%3D%220%22%2F%3E%3CmxCell%20id%3D%222%22%20value%3D%22%26lt%3Bfont%20style%3D%26quot%3Bfont-size%3A%208px%3B%26quot%3B%26gt%3BTG%2F1%2F1%2F1%26lt%3B%2Ffont%26gt%3B%22%20style%3D%22text%3BstrokeColor%3Dnone%3Balign%3Dcenter%3BfillColor%3Dnone%3Bhtml%3D1%3BverticalAlign%3Dmiddle%3BwhiteSpace%3Dwrap%3Brounded%3D0%3B%22%20vertex%3D%221%22%20parent%3D%221%22%3E%3CmxGeometry%20x%3D%22920%22%20y%3D%222048%22%20width%3D%2260%22%20height%3D%2230%22%20as%3D%22geometry%22%2F%3E%3C%2FmxCell%3E%3C%2Froot%3E%3C%2FmxGraphModel%3E&lt;/span&gt;&lt;span style=&quot;color: rgba(0, 0, 0, 0); font-family: monospace; font-size: 0px; text-align: start; text-wrap-mode: nowrap;&quot;&gt;%3CmxGraphModel%3E%3Croot%3E%3CmxCell%20id%3D%220%22%2F%3E%3CmxCell%20id%3D%221%22%20parent%3D%220%22%2F%3E%3CmxCell%20id%3D%222%22%20value%3D%22%26lt%3Bfont%20style%3D%26quot%3Bfont-size%3A%208px%3B%26quot%3B%26gt%3BTG%2F1%2F1%2F1%26lt%3B%2Ffont%26gt%3B%22%20style%3D%22text%3BstrokeColor%3Dnone%3Balign%3Dcenter%3BfillColor%3Dnone%3Bhtml%3D1%3BverticalAlign%3Dmiddle%3BwhiteSpace%3Dwrap%3Brounded%3D0%3B%22%20vertex%3D%221%22%20parent%3D%221%22%3E%3CmxGeometry%20x%3D%22920%22%20y%3D%222048%22%20width%3D%2260%22%20height%3D%2230%22%20as%3D%22geometry%22%2F%3E%3C%2FmxCell%3E%3C%2Froot%3E%3C%2FmxGraphModel%3E&lt;/span&gt;" style="text;strokeColor=none;align=center;fillColor=none;html=1;verticalAlign=middle;whiteSpace=wrap;rounded=0;" parent="1" vertex="1">
          <mxGeometry x="1259.9" y="1290" width="60" height="30" as="geometry" />
        </mxCell>
        <mxCell id="bPvdb_K-X82c6QVr6BUw-130" value="&lt;font style=&quot;font-size: 8px;&quot;&gt;TG/1/2&lt;/font&gt;&lt;span style=&quot;color: rgba(0, 0, 0, 0); font-family: monospace; font-size: 0px; text-align: start; text-wrap-mode: nowrap;&quot;&gt;%3CmxGraphModel%3E%3Croot%3E%3CmxCell%20id%3D%220%22%2F%3E%3CmxCell%20id%3D%221%22%20parent%3D%220%22%2F%3E%3CmxCell%20id%3D%222%22%20value%3D%22%26lt%3Bfont%20style%3D%26quot%3Bfont-size%3A%208px%3B%26quot%3B%26gt%3BTG%2F1%2F1%2F1%26lt%3B%2Ffont%26gt%3B%22%20style%3D%22text%3BstrokeColor%3Dnone%3Balign%3Dcenter%3BfillColor%3Dnone%3Bhtml%3D1%3BverticalAlign%3Dmiddle%3BwhiteSpace%3Dwrap%3Brounded%3D0%3B%22%20vertex%3D%221%22%20parent%3D%221%22%3E%3CmxGeometry%20x%3D%22920%22%20y%3D%222048%22%20width%3D%2260%22%20height%3D%2230%22%20as%3D%22geometry%22%2F%3E%3C%2FmxCell%3E%3C%2Froot%3E%3C%2FmxGraphModel%3E&lt;/span&gt;&lt;span style=&quot;color: rgba(0, 0, 0, 0); font-family: monospace; font-size: 0px; text-align: start; text-wrap-mode: nowrap;&quot;&gt;%3CmxGraphModel%3E%3Croot%3E%3CmxCell%20id%3D%220%22%2F%3E%3CmxCell%20id%3D%221%22%20parent%3D%220%22%2F%3E%3CmxCell%20id%3D%222%22%20value%3D%22%26lt%3Bfont%20style%3D%26quot%3Bfont-size%3A%208px%3B%26quot%3B%26gt%3BTG%2F1%2F1%2F1%26lt%3B%2Ffont%26gt%3B%22%20style%3D%22text%3BstrokeColor%3Dnone%3Balign%3Dcenter%3BfillColor%3Dnone%3Bhtml%3D1%3BverticalAlign%3Dmiddle%3BwhiteSpace%3Dwrap%3Brounded%3D0%3B%22%20vertex%3D%221%22%20parent%3D%221%22%3E%3CmxGeometry%20x%3D%22920%22%20y%3D%222048%22%20width%3D%2260%22%20height%3D%2230%22%20as%3D%22geometry%22%2F%3E%3C%2FmxCell%3E%3C%2Froot%3E%3C%2FmxGraphModel%3E&lt;/span&gt;" style="text;strokeColor=none;align=center;fillColor=none;html=1;verticalAlign=middle;whiteSpace=wrap;rounded=0;" parent="1" vertex="1">
          <mxGeometry x="1300" y="1300" width="60" height="30" as="geometry" />
        </mxCell>
        <mxCell id="bPvdb_K-X82c6QVr6BUw-131" value="&lt;font style=&quot;font-size: 8px;&quot;&gt;TG/1/1&lt;/font&gt;&lt;span style=&quot;color: rgba(0, 0, 0, 0); font-family: monospace; font-size: 0px; text-align: start; text-wrap-mode: nowrap;&quot;&gt;%3CmxGraphModel%3E%3Croot%3E%3CmxCell%20id%3D%220%22%2F%3E%3CmxCell%20id%3D%221%22%20parent%3D%220%22%2F%3E%3CmxCell%20id%3D%222%22%20value%3D%22%26lt%3Bfont%20style%3D%26quot%3Bfont-size%3A%208px%3B%26quot%3B%26gt%3BTG%2F1%2F1%2F1%26lt%3B%2Ffont%26gt%3B%22%20style%3D%22text%3BstrokeColor%3Dnone%3Balign%3Dcenter%3BfillColor%3Dnone%3Bhtml%3D1%3BverticalAlign%3Dmiddle%3BwhiteSpace%3Dwrap%3Brounded%3D0%3B%22%20vertex%3D%221%22%20parent%3D%221%22%3E%3CmxGeometry%20x%3D%22920%22%20y%3D%222048%22%20width%3D%2260%22%20height%3D%2230%22%20as%3D%22geometry%22%2F%3E%3C%2FmxCell%3E%3C%2Froot%3E%3C%2FmxGraphModel%3E&lt;/span&gt;&lt;span style=&quot;color: rgba(0, 0, 0, 0); font-family: monospace; font-size: 0px; text-align: start; text-wrap-mode: nowrap;&quot;&gt;%3CmxGraphModel%3E%3Croot%3E%3CmxCell%20id%3D%220%22%2F%3E%3CmxCell%20id%3D%221%22%20parent%3D%220%22%2F%3E%3CmxCell%20id%3D%222%22%20value%3D%22%26lt%3Bfont%20style%3D%26quot%3Bfont-size%3A%208px%3B%26quot%3B%26gt%3BTG%2F1%2F1%2F1%26lt%3B%2Ffont%26gt%3B%22%20style%3D%22text%3BstrokeColor%3Dnone%3Balign%3Dcenter%3BfillColor%3Dnone%3Bhtml%3D1%3BverticalAlign%3Dmiddle%3BwhiteSpace%3Dwrap%3Brounded%3D0%3B%22%20vertex%3D%221%22%20parent%3D%221%22%3E%3CmxGeometry%20x%3D%22920%22%20y%3D%222048%22%20width%3D%2260%22%20height%3D%2230%22%20as%3D%22geometry%22%2F%3E%3C%2FmxCell%3E%3C%2Froot%3E%3C%2FmxGraphModel%3E&lt;/span&gt;" style="text;strokeColor=none;align=center;fillColor=none;html=1;verticalAlign=middle;whiteSpace=wrap;rounded=0;" parent="1" vertex="1">
          <mxGeometry x="940" y="2680" width="60" height="30" as="geometry" />
        </mxCell>
        <mxCell id="bPvdb_K-X82c6QVr6BUw-132" value="&lt;font style=&quot;font-size: 8px;&quot;&gt;TG/1/2&lt;/font&gt;" style="text;strokeColor=none;align=center;fillColor=none;html=1;verticalAlign=middle;whiteSpace=wrap;rounded=0;" parent="1" vertex="1">
          <mxGeometry x="1020" y="2694" width="60" height="30" as="geometry" />
        </mxCell>
        <mxCell id="bPvdb_K-X82c6QVr6BUw-133" value="&lt;font style=&quot;font-size: 8px;&quot;&gt;TG/1/1&lt;/font&gt;&lt;span style=&quot;color: rgba(0, 0, 0, 0); font-family: monospace; font-size: 0px; text-align: start; text-wrap-mode: nowrap;&quot;&gt;%3CmxGraphModel%3E%3Croot%3E%3CmxCell%20id%3D%220%22%2F%3E%3CmxCell%20id%3D%221%22%20parent%3D%220%22%2F%3E%3CmxCell%20id%3D%222%22%20value%3D%22%26lt%3Bfont%20style%3D%26quot%3Bfont-size%3A%208px%3B%26quot%3B%26gt%3BTG%2F1%2F1%2F1%26lt%3B%2Ffont%26gt%3B%22%20style%3D%22text%3BstrokeColor%3Dnone%3Balign%3Dcenter%3BfillColor%3Dnone%3Bhtml%3D1%3BverticalAlign%3Dmiddle%3BwhiteSpace%3Dwrap%3Brounded%3D0%3B%22%20vertex%3D%221%22%20parent%3D%221%22%3E%3CmxGeometry%20x%3D%22920%22%20y%3D%222048%22%20width%3D%2260%22%20height%3D%2230%22%20as%3D%22geometry%22%2F%3E%3C%2FmxCell%3E%3C%2Froot%3E%3C%2FmxGraphModel%3E&lt;/span&gt;&lt;span style=&quot;color: rgba(0, 0, 0, 0); font-family: monospace; font-size: 0px; text-align: start; text-wrap-mode: nowrap;&quot;&gt;%3CmxGraphModel%3E%3Croot%3E%3CmxCell%20id%3D%220%22%2F%3E%3CmxCell%20id%3D%221%22%20parent%3D%220%22%2F%3E%3CmxCell%20id%3D%222%22%20value%3D%22%26lt%3Bfont%20style%3D%26quot%3Bfont-size%3A%208px%3B%26quot%3B%26gt%3BTG%2F1%2F1%2F1%26lt%3B%2Ffont%26gt%3B%22%20style%3D%22text%3BstrokeColor%3Dnone%3Balign%3Dcenter%3BfillColor%3Dnone%3Bhtml%3D1%3BverticalAlign%3Dmiddle%3BwhiteSpace%3Dwrap%3Brounded%3D0%3B%22%20vertex%3D%221%22%20parent%3D%221%22%3E%3CmxGeometry%20x%3D%22920%22%20y%3D%222048%22%20width%3D%2260%22%20height%3D%2230%22%20as%3D%22geometry%22%2F%3E%3C%2FmxCell%3E%3C%2Froot%3E%3C%2FmxGraphModel%3E&lt;/span&gt;" style="text;strokeColor=none;align=center;fillColor=none;html=1;verticalAlign=middle;whiteSpace=wrap;rounded=0;" parent="1" vertex="1">
          <mxGeometry x="1235" y="2694" width="60" height="30" as="geometry" />
        </mxCell>
        <mxCell id="bPvdb_K-X82c6QVr6BUw-134" value="&lt;font style=&quot;font-size: 8px;&quot;&gt;TG/1/2&lt;/font&gt;" style="text;strokeColor=none;align=center;fillColor=none;html=1;verticalAlign=middle;whiteSpace=wrap;rounded=0;" parent="1" vertex="1">
          <mxGeometry x="1330" y="2684" width="60" height="30" as="geometry" />
        </mxCell>
        <mxCell id="bPvdb_K-X82c6QVr6BUw-135" value="&lt;font style=&quot;font-size: 8px;&quot;&gt;GE/0/1&lt;/font&gt;" style="text;strokeColor=none;align=center;fillColor=none;html=1;verticalAlign=middle;whiteSpace=wrap;rounded=0;" parent="1" vertex="1">
          <mxGeometry x="880" y="1969.9999999999998" width="60" height="30" as="geometry" />
        </mxCell>
        <mxCell id="bPvdb_K-X82c6QVr6BUw-136" value="&lt;font style=&quot;font-size: 8px;&quot;&gt;GE&lt;span style=&quot;color: rgba(0, 0, 0, 0); font-family: monospace; font-size: 0px; text-align: start; text-wrap-mode: nowrap;&quot;&gt;%3CmxGraphModel%3E%3Croot%3E%3CmxCell%20id%3D%220%22%2F%3E%3CmxCell%20id%3D%221%22%20parent%3D%220%22%2F%3E%3CmxCell%20id%3D%222%22%20value%3D%22%26lt%3Bfont%20style%3D%26quot%3Bfont-size%3A%208px%3B%26quot%3B%26gt%3BGE%2F0%2F1%26lt%3B%2Ffont%26gt%3B%22%20style%3D%22text%3BstrokeColor%3Dnone%3Balign%3Dcenter%3BfillColor%3Dnone%3Bhtml%3D1%3BverticalAlign%3Dmiddle%3BwhiteSpace%3Dwrap%3Brounded%3D0%3B%22%20vertex%3D%221%22%20parent%3D%221%22%3E%3CmxGeometry%20x%3D%22880%22%20y%3D%221969.9999999999998%22%20width%3D%2260%22%20height%3D%2230%22%20as%3D%22geometry%22%2F%3E%3C%2FmxCell%3E%3C%2Froot%3E%3C%2FmxGraphModel%3E&lt;/span&gt;/0/2&lt;/font&gt;" style="text;strokeColor=none;align=center;fillColor=none;html=1;verticalAlign=middle;whiteSpace=wrap;rounded=0;" parent="1" vertex="1">
          <mxGeometry x="904" y="1949.9999999999998" width="60" height="30" as="geometry" />
        </mxCell>
        <mxCell id="bPvdb_K-X82c6QVr6BUw-137" value="&lt;font style=&quot;font-size: 8px;&quot;&gt;GE&lt;span style=&quot;color: rgba(0, 0, 0, 0); font-family: monospace; font-size: 0px; text-align: start; text-wrap-mode: nowrap;&quot;&gt;%3CmxGraphModel%3E%3Croot%3E%3CmxCell%20id%3D%220%22%2F%3E%3CmxCell%20id%3D%221%22%20parent%3D%220%22%2F%3E%3CmxCell%20id%3D%222%22%20value%3D%22%26lt%3Bfont%20style%3D%26quot%3Bfont-size%3A%208px%3B%26quot%3B%26gt%3BGE%2F0%2F1%26lt%3B%2Ffont%26gt%3B%22%20style%3D%22text%3BstrokeColor%3Dnone%3Balign%3Dcenter%3BfillColor%3Dnone%3Bhtml%3D1%3BverticalAlign%3Dmiddle%3BwhiteSpace%3Dwrap%3Brounded%3D0%3B%22%20vertex%3D%221%22%20parent%3D%221%22%3E%3CmxGeometry%20x%3D%22880%22%20y%3D%221969.9999999999998%22%20width%3D%2260%22%20height%3D%2230%22%20as%3D%22geometry%22%2F%3E%3C%2FmxCell%3E%3C%2Froot%3E%3C%2FmxGraphModel%3E&lt;/span&gt;/0/3&lt;/font&gt;" style="text;strokeColor=none;align=center;fillColor=none;html=1;verticalAlign=middle;whiteSpace=wrap;rounded=0;" parent="1" vertex="1">
          <mxGeometry x="860" y="1999.9999999999998" width="60" height="30" as="geometry" />
        </mxCell>
        <mxCell id="bPvdb_K-X82c6QVr6BUw-138" value="&lt;font style=&quot;font-size: 8px;&quot;&gt;GE&lt;span style=&quot;color: rgba(0, 0, 0, 0); font-family: monospace; font-size: 0px; text-align: start; text-wrap-mode: nowrap;&quot;&gt;%3CmxGraphModel%3E%3Croot%3E%3CmxCell%20id%3D%220%22%2F%3E%3CmxCell%20id%3D%221%22%20parent%3D%220%22%2F%3E%3CmxCell%20id%3D%222%22%20value%3D%22%26lt%3Bfont%20style%3D%26quot%3Bfont-size%3A%208px%3B%26quot%3B%26gt%3BGE%2F0%2F1%26lt%3B%2Ffont%26gt%3B%22%20style%3D%22text%3BstrokeColor%3Dnone%3Balign%3Dcenter%3BfillColor%3Dnone%3Bhtml%3D1%3BverticalAlign%3Dmiddle%3BwhiteSpace%3Dwrap%3Brounded%3D0%3B%22%20vertex%3D%221%22%20parent%3D%221%22%3E%3CmxGeometry%20x%3D%22880%22%20y%3D%221969.9999999999998%22%20width%3D%2260%22%20height%3D%2230%22%20as%3D%22geometry%22%2F%3E%3C%2FmxCell%3E%3C%2Froot%3E%3C%2FmxGraphModel%3E&lt;/span&gt;/0/4&lt;/font&gt;" style="text;strokeColor=none;align=center;fillColor=none;html=1;verticalAlign=middle;whiteSpace=wrap;rounded=0;" parent="1" vertex="1">
          <mxGeometry x="863" y="2025.9999999999998" width="60" height="30" as="geometry" />
        </mxCell>
        <mxCell id="bPvdb_K-X82c6QVr6BUw-139" value="&lt;font style=&quot;font-size: 8px;&quot;&gt;GE&lt;span style=&quot;color: rgba(0, 0, 0, 0); font-family: monospace; font-size: 0px; text-align: start; text-wrap-mode: nowrap;&quot;&gt;%3CmxGraphModel%3E%3Croot%3E%3CmxCell%20id%3D%220%22%2F%3E%3CmxCell%20id%3D%221%22%20parent%3D%220%22%2F%3E%3CmxCell%20id%3D%222%22%20value%3D%22%26lt%3Bfont%20style%3D%26quot%3Bfont-size%3A%208px%3B%26quot%3B%26gt%3BGE%2F0%2F1%26lt%3B%2Ffont%26gt%3B%22%20style%3D%22text%3BstrokeColor%3Dnone%3Balign%3Dcenter%3BfillColor%3Dnone%3Bhtml%3D1%3BverticalAlign%3Dmiddle%3BwhiteSpace%3Dwrap%3Brounded%3D0%3B%22%20vertex%3D%221%22%20parent%3D%221%22%3E%3CmxGeometry%20x%3D%22880%22%20y%3D%221969.9999999999998%22%20width%3D%2260%22%20height%3D%2230%22%20as%3D%22geometry%22%2F%3E%3C%2FmxCell%3E%3C%2Froot%3E%3C%2FmxGraphModel%3E&lt;/span&gt;/0/5&lt;/font&gt;" style="text;strokeColor=none;align=center;fillColor=none;html=1;verticalAlign=middle;whiteSpace=wrap;rounded=0;" parent="1" vertex="1">
          <mxGeometry x="890" y="2039.9999999999998" width="60" height="30" as="geometry" />
        </mxCell>
        <mxCell id="bPvdb_K-X82c6QVr6BUw-140" value="&lt;font style=&quot;font-size: 8px;&quot;&gt;GE/0/1&lt;/font&gt;" style="text;strokeColor=none;align=center;fillColor=none;html=1;verticalAlign=middle;whiteSpace=wrap;rounded=0;" parent="1" vertex="1">
          <mxGeometry x="1160" y="1949.9999999999998" width="60" height="30" as="geometry" />
        </mxCell>
        <mxCell id="bPvdb_K-X82c6QVr6BUw-141" value="&lt;font style=&quot;font-size: 8px;&quot;&gt;GE/0/2&lt;/font&gt;" style="text;strokeColor=none;align=center;fillColor=none;html=1;verticalAlign=middle;whiteSpace=wrap;rounded=0;" parent="1" vertex="1">
          <mxGeometry x="1181" y="1979.9999999999998" width="60" height="30" as="geometry" />
        </mxCell>
        <mxCell id="bPvdb_K-X82c6QVr6BUw-142" value="&lt;font style=&quot;font-size: 8px;&quot;&gt;GE/0/1&lt;/font&gt;" style="text;strokeColor=none;align=center;fillColor=none;html=1;verticalAlign=middle;whiteSpace=wrap;rounded=0;" parent="1" vertex="1">
          <mxGeometry x="1400" y="1991.9999999999998" width="60" height="30" as="geometry" />
        </mxCell>
        <mxCell id="bPvdb_K-X82c6QVr6BUw-143" value="&lt;font style=&quot;font-size: 8px;&quot;&gt;GE/0/2&lt;/font&gt;" style="text;strokeColor=none;align=center;fillColor=none;html=1;verticalAlign=middle;whiteSpace=wrap;rounded=0;" parent="1" vertex="1">
          <mxGeometry x="1360" y="1969.9999999999998" width="60" height="30" as="geometry" />
        </mxCell>
        <mxCell id="bPvdb_K-X82c6QVr6BUw-144" value="&lt;font style=&quot;font-size: 8px;&quot;&gt;GE/0/3&lt;/font&gt;" style="text;strokeColor=none;align=center;fillColor=none;html=1;verticalAlign=middle;whiteSpace=wrap;rounded=0;" parent="1" vertex="1">
          <mxGeometry x="1408" y="2009.9999999999998" width="60" height="30" as="geometry" />
        </mxCell>
        <mxCell id="bPvdb_K-X82c6QVr6BUw-145" value="&lt;font style=&quot;font-size: 8px;&quot;&gt;GE&lt;span style=&quot;color: rgba(0, 0, 0, 0); font-family: monospace; font-size: 0px; text-align: start; text-wrap-mode: nowrap;&quot;&gt;%3CmxGraphModel%3E%3Croot%3E%3CmxCell%20id%3D%220%22%2F%3E%3CmxCell%20id%3D%221%22%20parent%3D%220%22%2F%3E%3CmxCell%20id%3D%222%22%20value%3D%22%26lt%3Bfont%20style%3D%26quot%3Bfont-size%3A%208px%3B%26quot%3B%26gt%3BGE%2F0%2F1%26lt%3B%2Ffont%26gt%3B%22%20style%3D%22text%3BstrokeColor%3Dnone%3Balign%3Dcenter%3BfillColor%3Dnone%3Bhtml%3D1%3BverticalAlign%3Dmiddle%3BwhiteSpace%3Dwrap%3Brounded%3D0%3B%22%20vertex%3D%221%22%20parent%3D%221%22%3E%3CmxGeometry%20x%3D%22880%22%20y%3D%221969.9999999999998%22%20width%3D%2260%22%20height%3D%2230%22%20as%3D%22geometry%22%2F%3E%3C%2FmxCell%3E%3C%2Froot%3E%3C%2FmxGraphModel%3E&lt;/span&gt;/0/1&lt;/font&gt;" style="text;strokeColor=none;align=center;fillColor=none;html=1;verticalAlign=middle;whiteSpace=wrap;rounded=0;" parent="1" vertex="1">
          <mxGeometry x="929.9" y="1311.9999999999998" width="60" height="30" as="geometry" />
        </mxCell>
        <mxCell id="bPvdb_K-X82c6QVr6BUw-147" value="&lt;font style=&quot;font-size: 8px;&quot;&gt;GE&lt;span style=&quot;color: rgba(0, 0, 0, 0); font-family: monospace; font-size: 0px; text-align: start; text-wrap-mode: nowrap;&quot;&gt;%3CmxGraphModel%3E%3Croot%3E%3CmxCell%20id%3D%220%22%2F%3E%3CmxCell%20id%3D%221%22%20parent%3D%220%22%2F%3E%3CmxCell%20id%3D%222%22%20value%3D%22%26lt%3Bfont%20style%3D%26quot%3Bfont-size%3A%208px%3B%26quot%3B%26gt%3BGE%2F0%2F1%26lt%3B%2Ffont%26gt%3B%22%20style%3D%22text%3BstrokeColor%3Dnone%3Balign%3Dcenter%3BfillColor%3Dnone%3Bhtml%3D1%3BverticalAlign%3Dmiddle%3BwhiteSpace%3Dwrap%3Brounded%3D0%3B%22%20vertex%3D%221%22%20parent%3D%221%22%3E%3CmxGeometry%20x%3D%22880%22%20y%3D%221969.9999999999998%22%20width%3D%2260%22%20height%3D%2230%22%20as%3D%22geometry%22%2F%3E%3C%2FmxCell%3E%3C%2Froot%3E%3C%2FmxGraphModel%3E&lt;/span&gt;/0/2&lt;/font&gt;" style="text;strokeColor=none;align=center;fillColor=none;html=1;verticalAlign=middle;whiteSpace=wrap;rounded=0;" parent="1" vertex="1">
          <mxGeometry x="910" y="1281.9999999999998" width="60" height="30" as="geometry" />
        </mxCell>
        <mxCell id="bPvdb_K-X82c6QVr6BUw-148" value="&lt;font style=&quot;font-size: 8px;&quot;&gt;GE&lt;span style=&quot;color: rgba(0, 0, 0, 0); font-family: monospace; font-size: 0px; text-align: start; text-wrap-mode: nowrap;&quot;&gt;%3CmxGraphModel%3E%3Croot%3E%3CmxCell%20id%3D%220%22%2F%3E%3CmxCell%20id%3D%221%22%20parent%3D%220%22%2F%3E%3CmxCell%20id%3D%222%22%20value%3D%22%26lt%3Bfont%20style%3D%26quot%3Bfont-size%3A%208px%3B%26quot%3B%26gt%3BGE%2F0%2F1%26lt%3B%2Ffont%26gt%3B%22%20style%3D%22text%3BstrokeColor%3Dnone%3Balign%3Dcenter%3BfillColor%3Dnone%3Bhtml%3D1%3BverticalAlign%3Dmiddle%3BwhiteSpace%3Dwrap%3Brounded%3D0%3B%22%20vertex%3D%221%22%20parent%3D%221%22%3E%3CmxGeometry%20x%3D%22880%22%20y%3D%221969.9999999999998%22%20width%3D%2260%22%20height%3D%2230%22%20as%3D%22geometry%22%2F%3E%3C%2FmxCell%3E%3C%2Froot%3E%3C%2FmxGraphModel%3E&lt;/span&gt;/0/3&lt;/font&gt;&lt;span style=&quot;color: rgba(0, 0, 0, 0); font-family: monospace; font-size: 0px; text-align: start; text-wrap-mode: nowrap;&quot;&gt;%3CmxGraphModel%3E%3Croot%3E%3CmxCell%20id%3D%220%22%2F%3E%3CmxCell%20id%3D%221%22%20parent%3D%220%22%2F%3E%3CmxCell%20id%3D%222%22%20value%3D%22%26lt%3Bfont%20style%3D%26quot%3Bfont-size%3A%208px%3B%26quot%3B%26gt%3BGE%26lt%3Bspan%20style%3D%26quot%3Bcolor%3A%20rgba(0%2C%200%2C%200%2C%200)%3B%20font-family%3A%20monospace%3B%20font-size%3A%200px%3B%20text-align%3A%20start%3B%20text-wrap-mode%3A%20nowrap%3B%26quot%3B%26gt%3B%253CmxGraphModel%253E%253Croot%253E%253CmxCell%2520id%253D%25220%2522%252F%253E%253CmxCell%2520id%253D%25221%2522%2520parent%253D%25220%2522%252F%253E%253CmxCell%2520id%253D%25222%2522%2520value%253D%2522%2526lt%253Bfont%2520style%253D%2526quot%253Bfont-size%253A%25208px%253B%2526quot%253B%2526gt%253BGE%252F0%252F1%2526lt%253B%252Ffont%2526gt%253B%2522%2520style%253D%2522text%253BstrokeColor%253Dnone%253Balign%253Dcenter%253BfillColor%253Dnone%253Bhtml%253D1%253BverticalAlign%253Dmiddle%253BwhiteSpace%253Dwrap%253Brounded%253D0%253B%2522%2520vertex%253D%25221%2522%2520parent%253D%25221%2522%253E%253CmxGeometry%2520x%253D%2522880%2522%2520y%253D%25221969.9999999999998%2522%2520width%253D%252260%2522%2520height%253D%252230%2522%2520as%253D%2522geometry%2522%252F%253E%253C%252FmxCell%253E%253C%252Froot%253E%253C%252FmxGraphModel%253E%26lt%3B%2Fspan%26gt%3B%2F0%2F2%26lt%3B%2Ffont%26gt%3B%22%20style%3D%22text%3BstrokeColor%3Dnone%3Balign%3Dcenter%3BfillColor%3Dnone%3Bhtml%3D1%3BverticalAlign%3Dmiddle%3BwhiteSpace%3Dwrap%3Brounded%3D0%3B%22%20vertex%3D%221%22%20parent%3D%221%22%3E%3CmxGeometry%20x%3D%22910%22%20y%3D%221281.9999999999998%22%20width%3D%2260%22%20height%3D%2230%22%20as%3D%22geometry%22%2F%3E%3C%2FmxCell%3E%3C%2Froot%3E%3C%2FmxGraphModel%3E&lt;/span&gt;" style="text;strokeColor=none;align=center;fillColor=none;html=1;verticalAlign=middle;whiteSpace=wrap;rounded=0;" parent="1" vertex="1">
          <mxGeometry x="907" y="1259.9999999999998" width="60" height="30" as="geometry" />
        </mxCell>
        <mxCell id="bPvdb_K-X82c6QVr6BUw-149" value="&lt;span style=&quot;font-size: 8px;&quot;&gt;GE/0/4&lt;/span&gt;" style="text;strokeColor=none;align=center;fillColor=none;html=1;verticalAlign=middle;whiteSpace=wrap;rounded=0;" parent="1" vertex="1">
          <mxGeometry x="923" y="1239.9999999999998" width="60" height="30" as="geometry" />
        </mxCell>
        <mxCell id="bPvdb_K-X82c6QVr6BUw-151" value="&lt;span style=&quot;font-size: 8px;&quot;&gt;GE/0/5&lt;/span&gt;" style="text;strokeColor=none;align=center;fillColor=none;html=1;verticalAlign=middle;whiteSpace=wrap;rounded=0;" parent="1" vertex="1">
          <mxGeometry x="940" y="1209.9999999999998" width="60" height="30" as="geometry" />
        </mxCell>
        <mxCell id="bPvdb_K-X82c6QVr6BUw-152" value="&lt;span style=&quot;font-size: 8px;&quot;&gt;GE/0/6&lt;/span&gt;" style="text;strokeColor=none;align=center;fillColor=none;html=1;verticalAlign=middle;whiteSpace=wrap;rounded=0;" parent="1" vertex="1">
          <mxGeometry x="960" y="1149.9999999999998" width="60" height="30" as="geometry" />
        </mxCell>
        <mxCell id="bPvdb_K-X82c6QVr6BUw-153" value="&lt;span style=&quot;font-size: 8px;&quot;&gt;GE/0/7&lt;/span&gt;" style="text;strokeColor=none;align=center;fillColor=none;html=1;verticalAlign=middle;whiteSpace=wrap;rounded=0;" parent="1" vertex="1">
          <mxGeometry x="1000" y="1219.9999999999998" width="60" height="30" as="geometry" />
        </mxCell>
        <mxCell id="bPvdb_K-X82c6QVr6BUw-155" value="&lt;font style=&quot;font-size: 8px;&quot;&gt;GE&lt;span style=&quot;color: rgba(0, 0, 0, 0); font-family: monospace; font-size: 0px; text-align: start; text-wrap-mode: nowrap;&quot;&gt;%3CmxGraphModel%3E%3Croot%3E%3CmxCell%20id%3D%220%22%2F%3E%3CmxCell%20id%3D%221%22%20parent%3D%220%22%2F%3E%3CmxCell%20id%3D%222%22%20value%3D%22%26lt%3Bfont%20style%3D%26quot%3Bfont-size%3A%208px%3B%26quot%3B%26gt%3BGE%2F0%2F1%26lt%3B%2Ffont%26gt%3B%22%20style%3D%22text%3BstrokeColor%3Dnone%3Balign%3Dcenter%3BfillColor%3Dnone%3Bhtml%3D1%3BverticalAlign%3Dmiddle%3BwhiteSpace%3Dwrap%3Brounded%3D0%3B%22%20vertex%3D%221%22%20parent%3D%221%22%3E%3CmxGeometry%20x%3D%22880%22%20y%3D%221969.9999999999998%22%20width%3D%2260%22%20height%3D%2230%22%20as%3D%22geometry%22%2F%3E%3C%2FmxCell%3E%3C%2Froot%3E%3C%2FmxGraphModel%3E&lt;/span&gt;/0/1&lt;/font&gt;" style="text;strokeColor=none;align=center;fillColor=none;html=1;verticalAlign=middle;whiteSpace=wrap;rounded=0;" parent="1" vertex="1">
          <mxGeometry x="1350" y="1299.9999999999998" width="60" height="30" as="geometry" />
        </mxCell>
        <mxCell id="bPvdb_K-X82c6QVr6BUw-156" value="&lt;font style=&quot;font-size: 8px;&quot;&gt;GE&lt;span style=&quot;color: rgba(0, 0, 0, 0); font-family: monospace; font-size: 0px; text-align: start; text-wrap-mode: nowrap;&quot;&gt;%3CmxGraphModel%3E%3Croot%3E%3CmxCell%20id%3D%220%22%2F%3E%3CmxCell%20id%3D%221%22%20parent%3D%220%22%2F%3E%3CmxCell%20id%3D%222%22%20value%3D%22%26lt%3Bfont%20style%3D%26quot%3Bfont-size%3A%208px%3B%26quot%3B%26gt%3BGE%2F0%2F1%26lt%3B%2Ffont%26gt%3B%22%20style%3D%22text%3BstrokeColor%3Dnone%3Balign%3Dcenter%3BfillColor%3Dnone%3Bhtml%3D1%3BverticalAlign%3Dmiddle%3BwhiteSpace%3Dwrap%3Brounded%3D0%3B%22%20vertex%3D%221%22%20parent%3D%221%22%3E%3CmxGeometry%20x%3D%22880%22%20y%3D%221969.9999999999998%22%20width%3D%2260%22%20height%3D%2230%22%20as%3D%22geometry%22%2F%3E%3C%2FmxCell%3E%3C%2Froot%3E%3C%2FmxGraphModel%3E&lt;/span&gt;/0/2&lt;/font&gt;" style="text;strokeColor=none;align=center;fillColor=none;html=1;verticalAlign=middle;whiteSpace=wrap;rounded=0;" parent="1" vertex="1">
          <mxGeometry x="1390" y="1289.9999999999998" width="60" height="30" as="geometry" />
        </mxCell>
        <mxCell id="bPvdb_K-X82c6QVr6BUw-157" value="&lt;font style=&quot;font-size: 8px;&quot;&gt;GE&lt;span style=&quot;color: rgba(0, 0, 0, 0); font-family: monospace; font-size: 0px; text-align: start; text-wrap-mode: nowrap;&quot;&gt;%3CmxGraphModel%3E%3Croot%3E%3CmxCell%20id%3D%220%22%2F%3E%3CmxCell%20id%3D%221%22%20parent%3D%220%22%2F%3E%3CmxCell%20id%3D%222%22%20value%3D%22%26lt%3Bfont%20style%3D%26quot%3Bfont-size%3A%208px%3B%26quot%3B%26gt%3BGE%2F0%2F1%26lt%3B%2Ffont%26gt%3B%22%20style%3D%22text%3BstrokeColor%3Dnone%3Balign%3Dcenter%3BfillColor%3Dnone%3Bhtml%3D1%3BverticalAlign%3Dmiddle%3BwhiteSpace%3Dwrap%3Brounded%3D0%3B%22%20vertex%3D%221%22%20parent%3D%221%22%3E%3CmxGeometry%20x%3D%22880%22%20y%3D%221969.9999999999998%22%20width%3D%2260%22%20height%3D%2230%22%20as%3D%22geometry%22%2F%3E%3C%2FmxCell%3E%3C%2Froot%3E%3C%2FmxGraphModel%3E&lt;/span&gt;/0/3&lt;/font&gt;&lt;span style=&quot;color: rgba(0, 0, 0, 0); font-family: monospace; font-size: 0px; text-align: start; text-wrap-mode: nowrap;&quot;&gt;%3CmxGraphModel%3E%3Croot%3E%3CmxCell%20id%3D%220%22%2F%3E%3CmxCell%20id%3D%221%22%20parent%3D%220%22%2F%3E%3CmxCell%20id%3D%222%22%20value%3D%22%26lt%3Bfont%20style%3D%26quot%3Bfont-size%3A%208px%3B%26quot%3B%26gt%3BGE%26lt%3Bspan%20style%3D%26quot%3Bcolor%3A%20rgba(0%2C%200%2C%200%2C%200)%3B%20font-family%3A%20monospace%3B%20font-size%3A%200px%3B%20text-align%3A%20start%3B%20text-wrap-mode%3A%20nowrap%3B%26quot%3B%26gt%3B%253CmxGraphModel%253E%253Croot%253E%253CmxCell%2520id%253D%25220%2522%252F%253E%253CmxCell%2520id%253D%25221%2522%2520parent%253D%25220%2522%252F%253E%253CmxCell%2520id%253D%25222%2522%2520value%253D%2522%2526lt%253Bfont%2520style%253D%2526quot%253Bfont-size%253A%25208px%253B%2526quot%253B%2526gt%253BGE%252F0%252F1%2526lt%253B%252Ffont%2526gt%253B%2522%2520style%253D%2522text%253BstrokeColor%253Dnone%253Balign%253Dcenter%253BfillColor%253Dnone%253Bhtml%253D1%253BverticalAlign%253Dmiddle%253BwhiteSpace%253Dwrap%253Brounded%253D0%253B%2522%2520vertex%253D%25221%2522%2520parent%253D%25221%2522%253E%253CmxGeometry%2520x%253D%2522880%2522%2520y%253D%25221969.9999999999998%2522%2520width%253D%252260%2522%2520height%253D%252230%2522%2520as%253D%2522geometry%2522%252F%253E%253C%252FmxCell%253E%253C%252Froot%253E%253C%252FmxGraphModel%253E%26lt%3B%2Fspan%26gt%3B%2F0%2F2%26lt%3B%2Ffont%26gt%3B%22%20style%3D%22text%3BstrokeColor%3Dnone%3Balign%3Dcenter%3BfillColor%3Dnone%3Bhtml%3D1%3BverticalAlign%3Dmiddle%3BwhiteSpace%3Dwrap%3Brounded%3D0%3B%22%20vertex%3D%221%22%20parent%3D%221%22%3E%3CmxGeometry%20x%3D%22910%22%20y%3D%221281.9999999999998%22%20width%3D%2260%22%20height%3D%2230%22%20as%3D%22geometry%22%2F%3E%3C%2FmxCell%3E%3C%2Froot%3E%3C%2FmxGraphModel%3E&lt;/span&gt;" style="text;strokeColor=none;align=center;fillColor=none;html=1;verticalAlign=middle;whiteSpace=wrap;rounded=0;" parent="1" vertex="1">
          <mxGeometry x="1350" y="1268.9999999999998" width="60" height="30" as="geometry" />
        </mxCell>
        <mxCell id="bPvdb_K-X82c6QVr6BUw-158" value="&lt;span style=&quot;font-size: 8px;&quot;&gt;GE/0/4&lt;/span&gt;" style="text;strokeColor=none;align=center;fillColor=none;html=1;verticalAlign=middle;whiteSpace=wrap;rounded=0;" parent="1" vertex="1">
          <mxGeometry x="1348" y="1238.9999999999998" width="60" height="30" as="geometry" />
        </mxCell>
        <mxCell id="bPvdb_K-X82c6QVr6BUw-159" value="&lt;span style=&quot;font-size: 8px;&quot;&gt;GE/0/5&lt;/span&gt;" style="text;strokeColor=none;align=center;fillColor=none;html=1;verticalAlign=middle;whiteSpace=wrap;rounded=0;" parent="1" vertex="1">
          <mxGeometry x="1340" y="1226" width="30" height="30" as="geometry" />
        </mxCell>
        <mxCell id="bPvdb_K-X82c6QVr6BUw-160" value="&lt;span style=&quot;font-size: 8px;&quot;&gt;GE/0/6&lt;/span&gt;" style="text;strokeColor=none;align=center;fillColor=none;html=1;verticalAlign=middle;whiteSpace=wrap;rounded=0;" parent="1" vertex="1">
          <mxGeometry x="1260" y="1229.9999999999998" width="60" height="30" as="geometry" />
        </mxCell>
        <mxCell id="bPvdb_K-X82c6QVr6BUw-161" value="&lt;font style=&quot;font-size: 8px;&quot;&gt;GE/0/1&lt;/font&gt;" style="text;strokeColor=none;align=center;fillColor=none;html=1;verticalAlign=middle;whiteSpace=wrap;rounded=0;" parent="1" vertex="1">
          <mxGeometry x="940" y="2750" width="60" height="30" as="geometry" />
        </mxCell>
        <mxCell id="bPvdb_K-X82c6QVr6BUw-162" value="&lt;font style=&quot;font-size: 8px;&quot;&gt;GE&lt;span style=&quot;color: rgba(0, 0, 0, 0); font-family: monospace; font-size: 0px; text-align: start; text-wrap-mode: nowrap;&quot;&gt;%3CmxGraphModel%3E%3Croot%3E%3CmxCell%20id%3D%220%22%2F%3E%3CmxCell%20id%3D%221%22%20parent%3D%220%22%2F%3E%3CmxCell%20id%3D%222%22%20value%3D%22%26lt%3Bfont%20style%3D%26quot%3Bfont-size%3A%208px%3B%26quot%3B%26gt%3BGE%2F0%2F1%26lt%3B%2Ffont%26gt%3B%22%20style%3D%22text%3BstrokeColor%3Dnone%3Balign%3Dcenter%3BfillColor%3Dnone%3Bhtml%3D1%3BverticalAlign%3Dmiddle%3BwhiteSpace%3Dwrap%3Brounded%3D0%3B%22%20vertex%3D%221%22%20parent%3D%221%22%3E%3CmxGeometry%20x%3D%22880%22%20y%3D%221969.9999999999998%22%20width%3D%2260%22%20height%3D%2230%22%20as%3D%22geometry%22%2F%3E%3C%2FmxCell%3E%3C%2Froot%3E%3C%2FmxGraphModel%3E&lt;/span&gt;/0/2&lt;/font&gt;" style="text;strokeColor=none;align=center;fillColor=none;html=1;verticalAlign=middle;whiteSpace=wrap;rounded=0;" parent="1" vertex="1">
          <mxGeometry x="929.9" y="2720" width="60" height="30" as="geometry" />
        </mxCell>
        <mxCell id="bPvdb_K-X82c6QVr6BUw-163" value="&lt;font style=&quot;font-size: 8px;&quot;&gt;GE&lt;span style=&quot;color: rgba(0, 0, 0, 0); font-family: monospace; font-size: 0px; text-align: start; text-wrap-mode: nowrap;&quot;&gt;%3CmxGraphModel%3E%3Croot%3E%3CmxCell%20id%3D%220%22%2F%3E%3CmxCell%20id%3D%221%22%20parent%3D%220%22%2F%3E%3CmxCell%20id%3D%222%22%20value%3D%22%26lt%3Bfont%20style%3D%26quot%3Bfont-size%3A%208px%3B%26quot%3B%26gt%3BGE%2F0%2F1%26lt%3B%2Ffont%26gt%3B%22%20style%3D%22text%3BstrokeColor%3Dnone%3Balign%3Dcenter%3BfillColor%3Dnone%3Bhtml%3D1%3BverticalAlign%3Dmiddle%3BwhiteSpace%3Dwrap%3Brounded%3D0%3B%22%20vertex%3D%221%22%20parent%3D%221%22%3E%3CmxGeometry%20x%3D%22880%22%20y%3D%221969.9999999999998%22%20width%3D%2260%22%20height%3D%2230%22%20as%3D%22geometry%22%2F%3E%3C%2FmxCell%3E%3C%2Froot%3E%3C%2FmxGraphModel%3E&lt;/span&gt;/0/3&lt;/font&gt;" style="text;strokeColor=none;align=center;fillColor=none;html=1;verticalAlign=middle;whiteSpace=wrap;rounded=0;" parent="1" vertex="1">
          <mxGeometry x="1020" y="2740" width="60" height="30" as="geometry" />
        </mxCell>
        <mxCell id="bPvdb_K-X82c6QVr6BUw-164" value="&lt;font style=&quot;font-size: 8px;&quot;&gt;GE/0/1&lt;/font&gt;" style="text;strokeColor=none;align=center;fillColor=none;html=1;verticalAlign=middle;whiteSpace=wrap;rounded=0;" parent="1" vertex="1">
          <mxGeometry x="1310" y="2744" width="26" height="30" as="geometry" />
        </mxCell>
        <mxCell id="bPvdb_K-X82c6QVr6BUw-165" value="&lt;font style=&quot;font-size: 8px;&quot;&gt;GE&lt;span style=&quot;color: rgba(0, 0, 0, 0); font-family: monospace; font-size: 0px; text-align: start; text-wrap-mode: nowrap;&quot;&gt;%3CmxGraphModel%3E%3Croot%3E%3CmxCell%20id%3D%220%22%2F%3E%3CmxCell%20id%3D%221%22%20parent%3D%220%22%2F%3E%3CmxCell%20id%3D%222%22%20value%3D%22%26lt%3Bfont%20style%3D%26quot%3Bfont-size%3A%208px%3B%26quot%3B%26gt%3BGE%2F0%2F1%26lt%3B%2Ffont%26gt%3B%22%20style%3D%22text%3BstrokeColor%3Dnone%3Balign%3Dcenter%3BfillColor%3Dnone%3Bhtml%3D1%3BverticalAlign%3Dmiddle%3BwhiteSpace%3Dwrap%3Brounded%3D0%3B%22%20vertex%3D%221%22%20parent%3D%221%22%3E%3CmxGeometry%20x%3D%22880%22%20y%3D%221969.9999999999998%22%20width%3D%2260%22%20height%3D%2230%22%20as%3D%22geometry%22%2F%3E%3C%2FmxCell%3E%3C%2Froot%3E%3C%2FmxGraphModel%3E&lt;/span&gt;/0/2&lt;/font&gt;" style="text;strokeColor=none;align=center;fillColor=none;html=1;verticalAlign=middle;whiteSpace=wrap;rounded=0;" parent="1" vertex="1">
          <mxGeometry x="1319.9" y="2720" width="60" height="30" as="geometry" />
        </mxCell>
        <mxCell id="bPvdb_K-X82c6QVr6BUw-166" value="&lt;font style=&quot;font-size: 8px;&quot;&gt;GE&lt;span style=&quot;color: rgba(0, 0, 0, 0); font-family: monospace; font-size: 0px; text-align: start; text-wrap-mode: nowrap;&quot;&gt;%3CmxGraphModel%3E%3Croot%3E%3CmxCell%20id%3D%220%22%2F%3E%3CmxCell%20id%3D%221%22%20parent%3D%220%22%2F%3E%3CmxCell%20id%3D%222%22%20value%3D%22%26lt%3Bfont%20style%3D%26quot%3Bfont-size%3A%208px%3B%26quot%3B%26gt%3BGE%2F0%2F1%26lt%3B%2Ffont%26gt%3B%22%20style%3D%22text%3BstrokeColor%3Dnone%3Balign%3Dcenter%3BfillColor%3Dnone%3Bhtml%3D1%3BverticalAlign%3Dmiddle%3BwhiteSpace%3Dwrap%3Brounded%3D0%3B%22%20vertex%3D%221%22%20parent%3D%221%22%3E%3CmxGeometry%20x%3D%22880%22%20y%3D%221969.9999999999998%22%20width%3D%2260%22%20height%3D%2230%22%20as%3D%22geometry%22%2F%3E%3C%2FmxCell%3E%3C%2Froot%3E%3C%2FmxGraphModel%3E&lt;/span&gt;/0/3&lt;/font&gt;" style="text;strokeColor=none;align=center;fillColor=none;html=1;verticalAlign=middle;whiteSpace=wrap;rounded=0;" parent="1" vertex="1">
          <mxGeometry x="1227" y="2744" width="60" height="30" as="geometry" />
        </mxCell>
        <mxCell id="bPvdb_K-X82c6QVr6BUw-169" value="&lt;font style=&quot;font-size: 18px;&quot;&gt;10.30.0.0/16&lt;/font&gt;" style="text;html=1;align=center;verticalAlign=middle;whiteSpace=wrap;rounded=0;" parent="1" vertex="1">
          <mxGeometry x="740" y="1780" width="150" height="30" as="geometry" />
        </mxCell>
        <mxCell id="bPvdb_K-X82c6QVr6BUw-171" value="&lt;font style=&quot;font-size: 18px;&quot;&gt;10.120.0.0/16&lt;/font&gt;" style="text;html=1;align=center;verticalAlign=middle;whiteSpace=wrap;rounded=0;" parent="1" vertex="1">
          <mxGeometry x="1558.5" y="1720" width="150" height="30" as="geometry" />
        </mxCell>
        <mxCell id="bPvdb_K-X82c6QVr6BUw-172" value="&lt;font style=&quot;font-size: 18px;&quot;&gt;10.100.0.0/16&lt;/font&gt;" style="text;html=1;align=center;verticalAlign=middle;whiteSpace=wrap;rounded=0;" parent="1" vertex="1">
          <mxGeometry x="653" y="2900" width="150" height="30" as="geometry" />
        </mxCell>
        <mxCell id="bPvdb_K-X82c6QVr6BUw-173" value="&lt;font style=&quot;font-size: 18px;&quot;&gt;10.10.0.0/16&lt;/font&gt;" style="text;html=1;align=center;verticalAlign=middle;whiteSpace=wrap;rounded=0;" parent="1" vertex="1">
          <mxGeometry x="1553" y="2900" width="150" height="30" as="geometry" />
        </mxCell>
        <mxCell id="EUj0en5lkci84-GmeTKs-11" value="&lt;font style=&quot;font-size: 18px;&quot;&gt;VideoSurveillance&lt;/font&gt;" style="text;strokeColor=none;align=center;fillColor=none;html=1;verticalAlign=middle;whiteSpace=wrap;rounded=0;" vertex="1" parent="1">
          <mxGeometry x="2095" y="2330.1" width="110" height="30" as="geometry" />
        </mxCell>
        <mxCell id="EUj0en5lkci84-GmeTKs-17" value="" style="rounded=0;whiteSpace=wrap;html=1;" vertex="1" parent="1">
          <mxGeometry x="1990" y="2329" width="660" height="991" as="geometry" />
        </mxCell>
        <mxCell id="EUj0en5lkci84-GmeTKs-10" value="" style="swimlane;startSize=0;" vertex="1" parent="1">
          <mxGeometry x="2060" y="2400" width="170" height="199.9" as="geometry" />
        </mxCell>
        <mxCell id="EUj0en5lkci84-GmeTKs-9" value="" style="image;points=[];aspect=fixed;html=1;align=center;shadow=0;dashed=0;image=img/lib/allied_telesis/security/POE_DVS_Camera.svg;" vertex="1" parent="EUj0en5lkci84-GmeTKs-10">
          <mxGeometry x="74.5" y="79.90000000000009" width="51" height="40.2" as="geometry" />
        </mxCell>
        <mxCell id="EUj0en5lkci84-GmeTKs-12" value="&lt;font style=&quot;font-size: 18px;&quot;&gt;10.150.0.0/16&lt;/font&gt;" style="text;html=1;align=center;verticalAlign=middle;whiteSpace=wrap;rounded=0;" vertex="1" parent="1">
          <mxGeometry x="2230" y="2490" width="150" height="30" as="geometry" />
        </mxCell>
        <mxCell id="EUj0en5lkci84-GmeTKs-15" value="" style="swimlane;startSize=0;" vertex="1" parent="1">
          <mxGeometry x="2060" y="2680" width="200" height="200" as="geometry" />
        </mxCell>
        <mxCell id="EUj0en5lkci84-GmeTKs-14" value="" style="shape=mxgraph.cisco.computers_and_peripherals.speaker;html=1;pointerEvents=1;dashed=0;fillColor=#036897;strokeColor=#ffffff;strokeWidth=2;verticalLabelPosition=bottom;verticalAlign=top;align=center;outlineConnect=0;rotation=-180;" vertex="1" parent="EUj0en5lkci84-GmeTKs-15">
          <mxGeometry x="74.5" y="53" width="53" height="94" as="geometry" />
        </mxCell>
        <mxCell id="EUj0en5lkci84-GmeTKs-18" value="&lt;font style=&quot;font-size: 18px;&quot;&gt;Videosurveillance&lt;/font&gt;" style="text;strokeColor=none;align=center;fillColor=none;html=1;verticalAlign=middle;whiteSpace=wrap;rounded=0;" vertex="1" parent="1">
          <mxGeometry x="2085" y="2360.1" width="130" height="30" as="geometry" />
        </mxCell>
        <mxCell id="EUj0en5lkci84-GmeTKs-19" value="&lt;font style=&quot;font-size: 18px;&quot;&gt;systeme audio&lt;/font&gt;" style="text;strokeColor=none;align=center;fillColor=none;html=1;verticalAlign=middle;whiteSpace=wrap;rounded=0;" vertex="1" parent="1">
          <mxGeometry x="2085" y="2630" width="120" height="30" as="geometry" />
        </mxCell>
        <mxCell id="EUj0en5lkci84-GmeTKs-20" value="&lt;font style=&quot;font-size: 18px;&quot;&gt;10.160.0.0/16&lt;/font&gt;" style="text;html=1;align=center;verticalAlign=middle;whiteSpace=wrap;rounded=0;" vertex="1" parent="1">
          <mxGeometry x="2275" y="2760" width="150" height="30" as="geometry" />
        </mxCell>
        <mxCell id="EUj0en5lkci84-GmeTKs-21" value="&lt;font style=&quot;font-size: 18px;&quot;&gt;VLAN&lt;/font&gt;" style="text;strokeColor=none;align=center;fillColor=none;html=1;verticalAlign=middle;whiteSpace=wrap;rounded=0;" vertex="1" parent="1">
          <mxGeometry x="2275" y="2280" width="60" height="30" as="geometry" />
        </mxCell>
        <mxCell id="EUj0en5lkci84-GmeTKs-22" value="" style="swimlane;startSize=0;" vertex="1" parent="1">
          <mxGeometry x="2060" y="2960" width="200" height="200" as="geometry" />
        </mxCell>
        <mxCell id="EUj0en5lkci84-GmeTKs-23" value="" style="fontColor=#0066CC;verticalAlign=top;verticalLabelPosition=bottom;labelPosition=center;align=center;html=1;outlineConnect=0;fillColor=#CCCCCC;strokeColor=#6881B3;gradientColor=none;gradientDirection=north;strokeWidth=2;shape=mxgraph.networks.scanner;" vertex="1" parent="EUj0en5lkci84-GmeTKs-22">
          <mxGeometry x="51" y="60" width="100" height="69" as="geometry" />
        </mxCell>
        <mxCell id="EUj0en5lkci84-GmeTKs-24" value="&lt;font style=&quot;font-size: 18px;&quot;&gt;controle d&#39;acces intrusion, videophonie&lt;/font&gt;" style="text;strokeColor=none;align=center;fillColor=none;html=1;verticalAlign=middle;whiteSpace=wrap;rounded=0;" vertex="1" parent="1">
          <mxGeometry x="2000" y="2919" width="380" height="30" as="geometry" />
        </mxCell>
        <mxCell id="EUj0en5lkci84-GmeTKs-25" value="&lt;font style=&quot;font-size: 18px;&quot;&gt;10.140.0.0/16&lt;/font&gt;" style="text;html=1;align=center;verticalAlign=middle;whiteSpace=wrap;rounded=0;" vertex="1" parent="1">
          <mxGeometry x="2300" y="3060" width="150" height="30" as="geometry" />
        </mxCell>
      </root>
    </mxGraphModel>
  </diagram>
</mxfile>
